<svg xmlns="http://www.w3.org/2000/svg" width="366" height="360" viewBox="0 0 3660 3600"><g id="ltN6zbx3muz0za8rgam2gc" fill="rgb(7,16,16)" style="transform: none;"><g><path id="pKDOxO0qs" d="M1633 3484 c-317 -35 -612 -153 -853 -343 -114 -90 -282 -265 -327 -342 -10 -16 -23 -29 -30 -29 -7 0 -13 -7 -13 -16 0 -9 -15 -42 -34 -73 -175 -290 -254 -642 -227 -1011 12 -171 22 -226 68 -380 43 -141 111 -287 194 -416 35 -55 66 -101 69 -104 3 -3 30 -34 60 -70 183 -217 406 -374 673 -476 444 -169 969 -144 1390 67 493 248 823 707 903 1255 23 160 15 465 -16 609 -24 112 -107 372 -126 395 -7 8 -26 40 -42 70 -79 146 -149 243 -254 350 -73 75 -174 167 -212 193 -14 10 -26 24 -26 31 0 7 -18 18 -41 25 -22 7 -48 21 -57 32 -9 10 -24 19 -34 19 -9 0 -20 4 -23 10 -7 12 -125 70 -142 70 -7 0 -13 5 -13 10 0 6 -7 10 -16 10 -9 0 -30 6 -47 14 -52 22 -156 53 -242 71 -44 9 -96 21 -115 25 -59 15 -348 17 -467 4z m187 -144 c0 -19 7 -20 130 -20 129 0 210 -16 210 -42 0 -7 20 -8 54 -4 35 4 56 2 58 -5 2 -6 22 -13 46 -16 23 -3 42 -10 42 -14 0 -5 18 -9 40 -9 33 0 40 -3 40 -20 0 -16 7 -20 35 -20 19 0 35 5 35 10 0 6 7 10 16 10 18 0 44 -23 44 -39 0 -6 14 -11 31 -11 22 0 32 -5 36 -20 4 -15 14 -20 42 -20 44 0 77 -21 85 -55 4 -14 11 -25 17 -25 27 0 207 -168 284 -265 22 -27 46 -54 53 -58 6 -4 12 -14 12 -22 0 -8 9 -20 20 -27 11 -7 20 -19 20 -26 0 -20 31 -62 46 -62 8 0 14 -8 14 -19 0 -10 9 -29 19 -43 11 -13 22 -42 26 -64 8 -51 25 -94 36 -94 5 0 9 -7 9 -15 0 -8 5 -15 10 -15 6 0 10 -18 10 -39 0 -24 5 -41 14 -44 10 -4 16 -34 21 -99 4 -51 12 -96 18 -100 8 -5 11 -70 12 -195 0 -161 -3 -203 -23 -291 -37 -165 -87 -306 -152 -432 -25 -47 -48 -97 -53 -112 -4 -15 -16 -32 -27 -38 -11 -6 -20 -18 -20 -27 0 -9 -17 -32 -37 -52 -21 -20 -87 -92 -148 -159 -60 -68 -120 -125 -132 -128 -13 -4 -23 -12 -23 -20 0 -8 -6 -14 -13 -14 -7 0 -50 -24 -94 -52 -109 -71 -139 -88 -198 -113 -27 -12 -68 -30 -90 -39 -70 -31 -78 -34 -180 -61 -55 -15 -149 -33 -210 -41 -129 -16 -345 -20 -354 -6 -3 5 -42 13 -86 17 -51 4 -121 21 -195 47 -63 22 -128 42 -145 45 -16 3 -37 11 -45 19 -9 7 -40 24 -71 38 -30 14 -64 35 -76 46 -12 11 -34 20 -47 20 -15 0 -31 9 -38 20 -7 11 -21 20 -30 20 -10 0 -18 6 -18 13 0 8 -21 29 -47 47 -53 37 -253 236 -253 251 0 5 -9 9 -20 9 -15 0 -21 9 -26 40 -5 30 -11 40 -25 40 -12 0 -19 7 -19 19 0 10 -7 21 -15 25 -9 3 -15 18 -15 36 0 20 -5 30 -15 30 -18 0 -30 23 -39 73 -4 20 -11 37 -16 37 -11 0 -50 82 -50 104 0 8 -5 18 -10 21 -6 3 -10 19 -10 36 0 16 -4 29 -10 29 -5 0 -10 18 -10 39 0 22 -4 42 -9 45 -5 3 -12 27 -16 53 -3 27 -13 71 -21 100 -13 44 -14 80 -5 235 6 101 16 201 22 223 5 22 15 58 20 80 6 22 22 72 36 110 14 39 27 82 30 98 3 15 9 27 13 27 4 0 10 8 14 18 3 9 19 40 35 67 17 28 36 61 43 75 7 14 24 39 38 55 20 24 31 29 58 27 19 -2 44 4 59 13 38 25 38 13 0 -46 -80 -125 -147 -285 -147 -349 0 -39 1 -40 35 -40 27 0 35 4 35 18 0 9 9 31 20 47 11 17 20 40 20 53 0 14 6 22 18 22 10 0 26 16 37 38 154 294 368 504 658 643 83 40 87 43 87 74 0 29 4 34 30 40 17 4 30 10 30 14 0 5 28 11 62 15 34 3 65 11 69 17 9 16 429 26 429 11 0 -17 69 -15 86 2 8 8 14 28 14 44 0 41 -15 43 -219 37 -121 -4 -171 -3 -171 5 0 8 -31 10 -97 6 -54 -2 -83 -2 -65 0 17 3 32 9 32 15 0 5 17 9 38 9 20 0 60 3 89 6 45 6 53 10 64 35 13 33 29 38 29 9z m-300 -99 c0 -13 -9 -21 -30 -26 -16 -4 -30 -10 -30 -14 0 -9 -101 -24 -108 -16 -6 5 74 42 108 50 17 4 32 11 35 16 10 16 25 10 25 -10z m-240 -91 c0 -5 -7 -10 -15 -10 -8 0 -15 -9 -15 -20 0 -27 -17 -32 -64 -23 l-39 8 44 22 c69 34 89 39 89 23z m-150 -69 c0 -5 -9 -13 -20 -16 -12 -4 -20 -15 -20 -28 -1 -16 -19 -34 -63 -64 -117 -79 -242 -198 -324 -308 l-22 -30 -1 69 0 69 45 41 c27 26 45 51 45 64 0 17 6 22 25 22 28 0 63 20 109 63 17 15 35 27 40 27 5 0 17 7 27 16 19 17 138 83 152 84 4 0 7 -4 7 -9z"></path><path id="pwqafmlpM" d="M2252 3144 c3 -36 6 -39 36 -42 17 -2 32 -7 32 -13 0 -5 16 -9 35 -9 33 0 35 2 35 35 0 28 -4 35 -19 35 -11 0 -21 5 -23 11 -2 6 -25 13 -52 16 l-47 6 3 -39z"></path><path id="pULBZ0P8d" d="M1278 2941 c-83 -35 -212 -121 -294 -195 -109 -99 -231 -265 -265 -361 -8 -22 -20 -46 -26 -53 -7 -7 -13 -29 -13 -48 0 -32 2 -34 34 -34 19 0 38 5 41 10 3 6 22 10 40 10 24 0 38 6 45 20 6 11 20 20 30 20 11 0 20 5 20 10 0 6 7 10 15 10 8 0 15 5 15 10 0 6 15 10 33 10 18 0 37 4 42 9 6 5 40 20 77 35 54 21 86 27 169 29 75 1 103 -1 106 -10 3 -7 20 -13 39 -13 32 0 34 2 34 35 0 24 -5 35 -15 35 -8 0 -15 4 -15 8 0 7 -187 72 -244 86 -5 1 -1 9 9 17 33 27 105 100 105 108 0 4 11 13 25 19 14 6 25 16 25 21 0 6 17 28 38 49 99 104 114 139 72 175 -28 24 -65 21 -142 -12z"></path><path id="p10wpaGyML" d="M3090 2240 c-12 -8 -12 -18 -2 -77 38 -205 44 -261 39 -393 -5 -129 -19 -214 -53 -325 -21 -66 -115 -276 -131 -293 -7 -7 -13 -20 -13 -28 0 -8 -4 -14 -10 -14 -5 0 -10 -7 -10 -15 0 -8 -4 -15 -10 -15 -5 0 -10 -16 -10 -35 0 -24 5 -35 15 -35 8 0 15 -4 15 -10 0 -5 -5 -10 -11 -10 -11 0 -39 -25 -39 -35 0 -3 -11 -16 -25 -29 -14 -13 -25 -28 -25 -35 0 -6 -4 -11 -8 -11 -5 0 -36 -26 -70 -57 -33 -32 -92 -80 -129 -108 -37 -27 -69 -53 -71 -57 -2 -4 -12 -8 -22 -8 -10 0 -22 -5 -25 -11 -12 -19 -166 -88 -274 -123 -170 -54 -279 -70 -444 -63 -78 3 -169 13 -202 21 -33 9 -77 16 -97 16 -36 0 -38 -1 -38 -34 0 -38 -11 -34 150 -60 127 -21 378 -21 500 0 101 17 234 54 283 79 16 8 36 15 44 15 7 0 13 5 13 10 0 6 5 10 11 10 18 0 139 63 139 72 0 5 8 8 18 8 10 0 43 22 73 50 30 27 57 49 61 50 12 0 58 47 58 59 0 6 6 11 13 11 15 0 39 22 82 75 17 20 36 42 43 50 6 7 12 18 12 24 0 6 5 11 10 11 6 0 10 11 10 25 0 16 6 25 15 25 9 0 19 8 22 18 4 9 15 26 25 36 10 11 18 26 18 33 0 7 3 13 8 13 4 0 12 10 18 23 6 12 23 45 37 72 56 109 96 245 123 420 19 119 13 424 -9 520 -34 145 -34 145 -75 145 -20 0 -44 -4 -52 -10z"></path><path id="p1Bi5dtTFf" d="M2926 2134 c-3 -9 -6 -38 -6 -65 0 -27 -4 -49 -10 -49 -5 0 -10 -15 -10 -34 0 -19 -4 -37 -9 -40 -5 -3 -11 -32 -14 -63 -14 -137 -20 -170 -33 -200 -8 -18 -19 -33 -24 -33 -6 0 -10 -9 -10 -20 0 -10 -9 -24 -20 -30 -11 -6 -20 -15 -20 -21 0 -6 -11 -25 -25 -44 -23 -29 -26 -41 -23 -102 l3 -68 33 -3 32 -3 0 -95 c0 -87 1 -94 20 -94 11 0 20 -4 20 -10 0 -5 15 -10 34 -10 33 0 36 3 84 98 101 197 137 363 129 602 -5 163 -20 240 -44 240 -8 0 -19 14 -24 30 -9 25 -16 30 -44 30 -21 0 -35 -6 -39 -16z"></path><path id="p6WBYqs0B" d="M1840 2048 c0 -28 5 -37 21 -41 11 -3 23 -15 26 -26 4 -16 17 -21 60 -27 63 -8 73 0 73 57 0 33 -3 37 -40 48 -23 7 -63 15 -90 18 l-50 6 0 -35z"></path><path id="piPOaVDpx" d="M2413 1813 c-7 -2 -13 -20 -13 -39 0 -31 3 -34 29 -34 49 0 61 9 61 46 0 32 -2 34 -32 33 -18 0 -39 -3 -45 -6z"></path><path id="pZL2H2LcP" d="M1210 545 c0 -33 2 -35 35 -35 33 0 35 2 35 35 0 33 -2 35 -35 35 -33 0 -35 -2 -35 -35z"></path><path id="p84Tn82aY" d="M1300 506 c0 -37 12 -46 61 -46 26 0 29 3 29 34 0 37 -12 46 -61 46 -26 0 -29 -3 -29 -34z"></path></g></g><g id="l1qIhDMbgzYgmPTEQOx13j8" fill="rgb(6,37,37)" style="transform: none;"><g><path id="pz9wXwnIE" d="M1630 3203 c-30 -3 -59 -8 -65 -13 -6 -5 -35 -11 -64 -14 -29 -3 -58 -10 -65 -15 -7 -6 -16 -8 -20 -4 -4 4 -11 1 -15 -6 -5 -7 -20 -13 -35 -13 -14 0 -26 -4 -26 -9 0 -5 -11 -9 -24 -9 -17 0 -25 -7 -28 -25 -6 -29 -7 -29 39 -10 43 18 42 18 39 1 -1 -8 -48 -38 -104 -66 -56 -28 -102 -55 -102 -61 0 -20 64 -7 132 27 84 42 245 96 340 114 38 7 69 18 72 26 3 8 19 14 36 14 28 0 30 3 30 35 0 39 7 38 -140 28z"></path><path id="p1He8c1Ijw" d="M1521 3029 c-89 -17 -241 -74 -241 -90 0 -5 -11 -9 -25 -9 -16 0 -25 -6 -25 -15 0 -9 -9 -15 -24 -15 -14 0 -31 -7 -40 -15 -8 -8 -19 -15 -25 -15 -6 0 -11 -11 -11 -25 0 -22 -4 -25 -35 -25 -32 0 -35 -2 -35 -30 l0 -29 87 59 c93 62 217 124 194 96 -16 -19 -12 -20 24 -6 60 23 48 -3 -50 -104 -22 -23 -39 -44 -37 -49 1 -4 -9 -13 -23 -19 -14 -6 -25 -15 -25 -19 0 -9 -81 -94 -95 -100 -19 -7 -56 -62 -47 -71 4 -4 50 -21 102 -37 52 -16 113 -36 135 -45 34 -13 35 -15 10 -11 -99 16 -129 16 -153 3 -20 -10 -26 -10 -29 0 -3 6 -9 12 -14 12 -6 0 -8 -4 -5 -8 3 -5 -15 -14 -40 -20 -33 -9 -44 -17 -44 -32 0 -38 41 -52 172 -57 198 -8 337 -52 499 -160 105 -69 132 -93 105 -93 -12 0 -16 -9 -16 -35 0 -33 2 -35 35 -35 19 0 34 4 32 9 -3 11 2 12 31 5 12 -4 22 -11 22 -16 0 -6 -7 -8 -15 -4 -10 4 -15 -1 -15 -15 0 -15 5 -19 16 -15 11 4 18 -1 21 -14 4 -16 14 -20 44 -20 38 0 39 1 39 35 0 19 -4 35 -10 35 -5 0 -10 10 -10 22 0 31 -167 192 -275 265 -102 68 -233 136 -345 178 -41 16 -79 32 -83 36 -16 13 33 89 105 165 69 72 84 83 159 121 82 42 119 94 119 169 0 24 -5 34 -15 34 -8 0 -15 5 -15 10 0 12 -67 11 -129 -1z"></path><path id="pRiwkBMXX" d="M2920 2575 c0 -30 5 -55 10 -55 6 0 10 -6 10 -14 0 -7 22 -60 49 -117 50 -107 106 -267 117 -339 5 -30 11 -40 25 -40 23 0 23 4 0 112 -10 48 -14 85 -10 82 5 -3 9 0 9 5 0 6 4 11 10 11 5 0 15 -20 21 -45 14 -55 39 -61 39 -10 0 19 -4 35 -10 35 -5 0 -10 11 -10 23 0 62 -107 304 -156 354 -11 11 -24 28 -27 37 -4 10 -19 16 -42 16 l-35 0 0 -55z"></path><path id="pyTCCR5sB" d="M1018 2414 c-4 -3 -14 -7 -25 -8 -10 -2 -19 -10 -21 -19 -3 -13 4 -17 32 -17 32 0 36 3 36 25 0 24 -10 32 -22 19z"></path><path id="p1Cc8qfbVa" d="M2834 2374 c-10 -45 -46 -148 -56 -158 -4 -6 -8 -16 -8 -23 0 -27 -131 -186 -172 -208 -32 -17 -162 -108 -179 -124 -9 -9 -30 -27 -47 -40 -26 -20 -32 -31 -32 -62 0 -36 2 -39 28 -39 95 2 200 65 362 216 89 84 97 81 60 -23 -11 -32 -20 -65 -20 -74 0 -9 -9 -24 -19 -33 -10 -10 -22 -33 -26 -53 -3 -19 -14 -44 -24 -54 -37 -40 -58 -179 -27 -179 8 0 16 -7 20 -15 9 -23 68 -19 84 5 7 12 17 18 22 15 5 -3 7 4 5 15 -2 12 3 24 16 30 10 6 19 20 19 30 0 11 4 20 10 20 5 0 16 15 24 33 13 30 19 63 33 200 3 31 9 60 14 63 5 3 9 21 9 40 0 19 5 34 10 34 6 0 10 24 10 53 0 74 13 88 34 35 12 -31 19 -39 25 -29 8 13 17 -15 36 -116 4 -21 13 -33 22 -33 36 0 -9 241 -72 393 -21 48 -41 90 -46 92 -5 3 -31 9 -58 12 -49 6 -50 5 -57 -23z"></path><path id="p1CmB7nuzm" d="M2010 2202 c0 -10 7 -63 15 -118 8 -54 15 -118 15 -141 0 -42 0 -43 35 -43 l35 0 0 63 c0 58 -12 165 -26 230 -5 23 -11 27 -40 27 -26 0 -34 -4 -34 -18z"></path><path id="pfgG3FfR9" d="M2207 2022 c-33 -66 -48 -109 -48 -134 1 -36 2 -38 35 -38 33 0 36 3 80 93 33 66 46 104 46 135 0 41 -1 42 -32 41 -31 0 -35 -5 -81 -97z"></path></g></g><g id="l3mR8VVjxNLzkeiTFim250E" fill="rgb(26,28,28)" style="transform: none;"><g><path id="pttj9T0Tm" d="M1545 3530 c-372 -68 -665 -216 -928 -469 -89 -86 -267 -303 -267 -326 0 -3 -16 -30 -34 -60 -106 -164 -186 -399 -222 -645 -22 -151 -15 -398 16 -553 72 -366 288 -747 555 -979 361 -314 854 -481 1301 -439 566 52 1043 341 1357 821 108 166 217 476 246 699 16 120 13 359 -4 476 -40 262 -158 563 -300 760 -66 91 -250 287 -340 361 -182 149 -482 287 -750 344 -150 33 -477 37 -630 10z m385 -71 c69 -2 136 -6 150 -10 14 -4 61 -15 105 -24 85 -18 190 -49 242 -71 17 -8 38 -14 47 -14 9 0 16 -4 16 -10 0 -5 6 -10 13 -10 17 0 135 -58 142 -70 3 -6 15 -10 25 -10 10 0 23 -6 27 -14 4 -7 19 -19 33 -27 27 -14 32 -16 55 -18 8 0 12 -7 10 -13 -3 -7 12 -24 32 -38 79 -51 247 -219 331 -329 57 -74 78 -107 134 -211 16 -30 34 -61 41 -68 6 -8 12 -19 14 -26 1 -6 23 -69 47 -141 66 -190 86 -300 93 -500 4 -131 1 -196 -12 -283 -62 -422 -276 -798 -597 -1054 -119 -94 -182 -135 -305 -197 -363 -182 -785 -225 -1173 -119 -327 89 -613 271 -830 528 -30 36 -57 67 -60 70 -3 3 -34 49 -69 104 -208 322 -294 681 -256 1063 26 262 97 480 229 698 19 32 32 63 29 68 -3 6 -1 7 5 3 5 -3 20 10 32 29 32 51 81 109 173 203 225 230 503 384 827 458 79 18 286 43 310 38 8 -2 71 -4 140 -5z"></path><path id="p107r1cPcS" d="M1762 3375 c-7 -8 -12 -17 -11 -20 3 -19 -16 -25 -93 -31 -49 -4 -88 -10 -88 -14 0 -4 -19 -10 -43 -13 -24 -3 -56 -13 -72 -21 -17 -9 -37 -16 -45 -16 -9 0 -20 -4 -25 -8 -6 -5 -48 -23 -95 -41 -47 -18 -103 -41 -125 -53 -163 -82 -215 -111 -225 -123 -7 -8 -18 -15 -24 -15 -6 0 -26 -13 -44 -29 -48 -44 -91 -68 -100 -55 -4 6 -13 13 -21 15 -18 6 -115 -86 -106 -100 8 -14 40 2 40 21 0 15 6 18 37 18 17 0 8 -13 -47 -65 -40 -39 -61 -65 -51 -65 9 0 16 -1 17 -2 0 -2 2 -25 5 -53 5 -46 4 -49 -11 -31 -15 19 -15 19 -15 -2 0 -33 -29 -44 -64 -24 -23 14 -30 14 -34 4 -2 -8 -16 -28 -31 -45 -15 -18 -32 -43 -39 -57 -7 -14 -26 -47 -43 -75 -16 -27 -32 -58 -35 -68 -4 -9 -18 -20 -32 -24 -23 -5 -24 -7 -8 -19 14 -10 15 -17 7 -32 -6 -12 -22 -58 -36 -104 -14 -46 -30 -96 -35 -113 -5 -16 -12 -49 -16 -72 -4 -24 -11 -40 -16 -37 -5 3 -7 12 -4 20 3 8 2 14 -3 14 -12 0 -20 -114 -9 -121 11 -7 17 -148 7 -154 -3 -2 -4 -18 -1 -35 2 -16 -1 -37 -8 -45 -10 -11 -10 -18 -1 -29 7 -8 10 -26 7 -40 -3 -14 -1 -26 4 -26 10 0 25 -67 22 -97 -1 -12 2 -24 8 -28 6 -3 8 -10 5 -15 -3 -5 0 -20 7 -32 6 -13 13 -39 15 -58 1 -19 7 -36 13 -38 5 -2 10 -17 10 -32 0 -16 5 -32 10 -35 6 -3 10 -13 10 -20 0 -23 43 -115 51 -110 10 7 18 -31 9 -45 -8 -13 30 -60 49 -60 7 0 9 -9 5 -24 -4 -18 0 -28 15 -38 12 -7 21 -21 21 -30 0 -12 8 -18 23 -19 12 0 16 -3 10 -6 -18 -7 -16 -30 2 -37 8 -3 15 -12 15 -21 0 -8 9 -15 20 -15 11 0 20 -4 20 -9 0 -15 200 -214 253 -251 26 -18 47 -39 47 -47 0 -7 7 -13 16 -13 9 0 23 -9 32 -19 10 -11 28 -21 42 -23 14 -2 34 -11 46 -21 12 -10 48 -31 81 -46 33 -16 64 -34 67 -40 4 -6 17 -11 29 -11 33 0 119 -35 110 -45 -5 -4 -3 -5 3 -2 12 7 142 -30 162 -45 6 -6 25 -8 41 -5 20 4 31 2 35 -8 6 -16 56 -21 56 -7 0 5 7 9 15 9 8 0 15 -6 15 -14 0 -11 28 -13 153 -8 83 3 184 10 222 15 39 5 79 8 90 6 11 -2 42 5 70 15 27 9 64 19 80 22 17 3 42 10 56 15 15 6 29 8 32 5 3 -3 18 2 34 10 28 15 68 33 158 72 59 25 89 42 198 113 44 28 87 52 94 52 7 0 13 6 13 14 0 8 10 16 23 20 12 3 72 60 132 128 61 67 127 139 148 159 20 20 37 41 37 48 0 7 14 26 30 43 17 16 29 35 28 41 -3 16 61 139 81 155 12 10 13 12 1 7 -10 -5 -10 -2 2 8 9 7 16 22 16 33 -2 24 21 84 32 84 4 0 7 13 8 29 0 17 5 38 10 48 14 26 62 244 62 281 0 17 3 32 8 34 10 4 -4 389 -15 397 -10 8 -10 32 0 49 10 15 -1 52 -15 52 -7 0 -6 5 2 15 9 11 8 22 -6 54 -10 22 -21 38 -26 35 -11 -7 -10 3 2 26 8 15 6 24 -9 39 -13 13 -16 21 -8 24 17 6 -6 42 -26 41 -9 -1 -18 5 -21 12 -3 8 -1 14 4 14 15 0 12 27 -5 44 -8 8 -15 20 -15 26 0 7 -9 23 -20 37 -11 14 -20 34 -20 44 0 11 -6 19 -14 19 -18 0 -49 48 -42 65 2 7 -4 15 -15 18 -10 3 -23 16 -28 30 -5 14 -13 26 -18 28 -4 2 -26 27 -48 54 -77 97 -257 265 -285 265 -5 0 -10 5 -10 10 0 6 0 13 -1 18 -1 13 -31 41 -51 48 -11 3 -29 15 -40 26 -11 11 -26 17 -33 14 -7 -2 -21 7 -30 20 -13 20 -22 24 -41 20 -17 -5 -23 -2 -22 6 2 8 -6 13 -19 12 -13 0 -23 5 -23 12 0 23 -21 26 -36 5 -15 -20 -16 -20 -35 -2 -12 11 -17 24 -13 34 4 11 1 17 -9 17 -9 0 -19 -9 -22 -20 -4 -11 -10 -18 -15 -15 -5 3 -11 -1 -14 -7 -3 -7 -3 4 0 24 7 42 -5 52 -63 52 -22 0 -33 5 -33 14 0 11 -3 12 -14 3 -10 -9 -15 -8 -20 4 -6 17 -46 21 -46 5 0 -5 6 -10 13 -10 6 -1 -3 -9 -22 -19 -31 -16 -38 -17 -68 -5 -22 10 -76 14 -165 14 -90 0 -128 3 -118 10 8 5 31 10 50 11 27 1 23 3 -20 9 -84 12 -114 11 -128 -5z m-128 -166 c-31 -12 -39 -10 -19 5 11 8 24 12 29 8 5 -3 1 -9 -10 -13z m301 11 c3 -5 -1 -10 -9 -10 -8 0 -18 5 -21 10 -3 6 1 10 9 10 8 0 18 -4 21 -10z m143 -69 c194 -40 384 -123 546 -239 90 -64 237 -204 285 -272 18 -25 38 -45 44 -45 7 0 12 -9 12 -20 0 -11 6 -19 12 -18 25 5 111 -156 158 -297 31 -93 33 -95 63 -95 30 0 31 -2 38 -52 3 -28 12 -54 18 -56 37 -14 53 -392 22 -522 -58 -249 -131 -405 -291 -623 -53 -73 -225 -242 -267 -262 -22 -11 -22 -10 2 10 110 95 151 134 209 204 82 98 115 147 170 250 66 124 119 302 142 481 13 104 7 344 -11 453 -11 61 -16 72 -33 72 -17 0 -18 -4 -12 -37 56 -291 11 -649 -112 -888 -14 -27 -31 -60 -37 -72 -11 -24 -26 -31 -26 -13 0 6 -7 10 -15 10 -15 0 -10 -29 8 -41 5 -4 5 -9 -2 -13 -6 -4 -11 -2 -11 4 0 6 -4 9 -9 5 -5 -3 -12 -1 -16 5 -10 16 5 50 21 50 8 0 13 4 10 9 -3 5 14 51 38 102 68 148 107 282 121 422 7 62 6 67 -12 67 -18 0 -21 -9 -27 -67 -8 -77 -47 -229 -76 -299 -11 -25 -20 -54 -20 -65 0 -10 -3 -19 -7 -19 -5 0 -26 -35 -48 -78 -22 -42 -43 -78 -47 -80 -14 -6 -9 -72 5 -72 8 0 8 -3 1 -8 -6 -4 -19 -23 -30 -42 -10 -19 -25 -39 -31 -43 -7 -4 -13 -12 -13 -17 0 -5 -27 -36 -60 -68 -33 -33 -60 -64 -60 -69 0 -6 -12 -16 -28 -22 -15 -6 -40 -27 -55 -46 -15 -19 -37 -35 -47 -35 -11 0 -20 -4 -20 -10 0 -5 -7 -10 -15 -10 -8 0 -15 -4 -15 -10 0 -5 -7 -10 -15 -10 -8 0 -15 -7 -15 -15 0 -8 -8 -15 -19 -15 -10 0 -56 -18 -102 -39 -157 -74 -371 -131 -489 -131 -28 0 -50 -4 -50 -10 0 -5 -11 -10 -25 -10 -14 0 -25 5 -25 10 0 6 -24 10 -54 10 -94 0 -288 43 -406 90 -173 68 -356 188 -486 319 -34 33 -67 61 -73 61 -6 0 -11 5 -11 10 0 6 -12 10 -26 10 -34 0 -54 22 -54 58 0 17 -6 32 -15 36 -8 3 -15 15 -15 26 0 16 -6 20 -35 20 l-35 0 6 56 c5 43 4 60 -7 68 -21 17 -35 45 -50 106 -7 30 -17 58 -21 61 -14 10 -58 256 -64 362 -7 113 5 232 38 372 12 50 21 99 21 110 -1 16 -1 17 3 3 7 -22 44 -24 44 -3 0 8 5 15 10 15 6 0 10 9 10 19 0 11 9 23 20 26 11 3 20 13 20 21 0 9 7 22 15 30 8 9 15 24 15 35 0 10 5 19 10 19 6 0 10 11 10 25 0 15 6 25 14 25 8 0 18 10 22 23 4 12 9 24 13 27 15 12 61 80 61 89 0 6 5 11 10 11 6 0 10 11 10 25 0 17 6 25 17 25 29 0 53 31 53 68 0 31 -2 33 -16 21 -57 -47 -169 -208 -239 -341 -11 -22 -27 -38 -37 -38 -12 0 -18 -8 -18 -22 0 -13 -9 -36 -21 -53 -19 -28 -20 -28 -14 -5 15 56 117 251 174 331 220 308 578 527 931 569 112 13 326 4 438 -19z m900 -2105 c7 1 8 0 2 -3 -5 -2 -10 -11 -10 -18 0 -8 -5 -17 -11 -21 -7 -4 -9 0 -5 14 4 11 2 23 -4 27 -5 3 -10 14 -10 23 1 14 3 13 13 -4 7 -12 18 -20 25 -18z m-149 -213 c-18 -23 -42 -42 -52 -43 -5 0 7 14 25 30 37 34 47 39 27 13z m-93 -88 c-37 -34 -44 -31 -10 5 16 16 30 27 33 25 2 -3 -8 -16 -23 -30z m-95 -75 c-51 -47 -72 -60 -70 -42 0 7 110 91 119 91 3 0 -19 -22 -49 -49z m24 -56 c-16 -14 -43 -32 -60 -40 -16 -8 -21 -9 -11 -2 11 7 27 20 36 28 19 17 52 39 60 39 3 0 -8 -11 -25 -25z m-115 -2 c0 -9 -129 -76 -136 -70 -2 3 19 15 46 28 28 13 56 30 62 37 12 14 28 17 28 5z m-1406 -77 c11 -8 15 -15 10 -15 -6 0 -19 7 -30 15 -10 8 -14 14 -9 14 6 0 19 -6 29 -14z m1211 -24 c-13 -12 -151 -56 -240 -76 -45 -11 -131 -17 -245 -19 l-175 -4 165 8 c173 7 283 27 415 74 78 27 94 31 80 17z m-986 -73 c35 -11 100 -28 145 -39 l81 -19 -63 6 c-65 5 -217 51 -284 85 -53 27 -47 32 10 8 26 -12 76 -30 111 -41z m1027 27 c-11 -8 -27 -15 -35 -14 -9 0 -2 7 14 14 39 18 45 18 21 0z m-826 -25 c20 -6 21 -8 5 -8 -11 0 -29 3 -40 8 -25 11 1 11 35 0z m650 -35 c-102 -33 -240 -55 -363 -59 -112 -4 -177 2 -177 15 0 5 67 9 149 9 144 0 338 24 401 49 14 5 34 10 45 10 11 -1 -14 -11 -55 -24z"></path><path id="pENAbpjZ8" d="M1020 2871 c-36 -27 -76 -61 -89 -75 l-24 -26 35 0 c34 0 68 24 68 48 0 7 9 12 20 12 11 0 23 7 26 15 4 8 12 15 20 15 9 0 14 11 14 30 0 17 -1 30 -2 30 -2 0 -32 -22 -68 -49z"></path><path id="pIJjJL06G" d="M1004 2766 c-3 -8 -4 -24 -2 -36 3 -20 5 -20 43 14 l40 35 -38 1 c-24 0 -40 -5 -43 -14z"></path><path id="pgihJepx4" d="M877 2643 c-4 -3 -7 -17 -7 -30 0 -16 -6 -23 -20 -23 -17 0 -20 -7 -20 -37 l1 -38 35 40 c19 22 44 52 55 68 l20 27 -29 0 c-16 0 -32 -3 -35 -7z"></path><path id="pq0Ux2lTN" d="M740 2430 c0 -11 -4 -20 -8 -20 -13 0 -32 -47 -32 -79 0 -25 3 -28 38 -29 38 -2 38 -1 34 30 -4 29 -6 30 -18 13 -22 -29 -16 -8 11 47 14 27 25 52 25 54 0 2 -11 4 -25 4 -18 0 -25 -5 -25 -20z"></path><path id="p14j0qO1KP" d="M3130 1825 c0 -49 23 -64 33 -23 8 31 -2 68 -19 68 -10 0 -14 -13 -14 -45z"></path><path id="pafq0i3sG" d="M3050 1716 c0 -29 -37 -200 -56 -260 -30 -94 -113 -263 -122 -249 -4 5 -14 12 -23 15 -12 5 -16 -1 -17 -28 -1 -32 0 -34 33 -34 24 0 35 5 35 15 0 8 6 15 14 15 32 0 125 235 151 384 19 113 19 146 0 146 -8 0 -15 -2 -15 -4z"></path><path id="pYLxvbShZ" d="M2790 1554 c0 -11 -6 -26 -12 -34 -11 -12 -10 -12 3 -2 9 6 19 9 22 6 4 -4 4 4 2 16 -6 30 -15 38 -15 14z"></path><path id="p1CAlrH7L" d="M2890 1285 c0 -8 5 -15 10 -15 6 0 10 7 10 15 0 8 -4 15 -10 15 -5 0 -10 -7 -10 -15z"></path><path id="pNkFTYfJC" d="M1570 3350 c36 -11 52 -11 45 0 -3 6 -21 10 -38 9 -31 -1 -31 -1 -7 -9z"></path><path id="pRtXAYC9S" d="M1325 3295 c-16 -9 -22 -13 -13 -11 9 3 18 1 20 -4 4 -12 57 1 60 15 5 16 -34 16 -67 0z"></path><path id="p3SJI8U94" d="M1193 3245 c-29 -14 -53 -31 -53 -38 0 -8 4 -7 9 2 6 10 25 15 50 14 23 0 38 3 35 8 -3 5 0 10 5 10 6 1 16 2 21 3 15 2 13 21 -2 24 -7 1 -37 -9 -65 -23z"></path><path id="ptQnywQuD" d="M1090 3189 c0 -5 -4 -8 -9 -5 -4 3 -16 0 -25 -7 -15 -11 -12 -12 16 -12 18 0 34 3 36 8 5 15 2 27 -8 27 -5 0 -10 -5 -10 -11z"></path></g></g><g id="l3JLRlQ9PC3biH0o2GwmtJi" fill="rgb(8,41,77)" style="transform: none;"><g><path id="pbmNlK18p" d="M1027 2416 c-15 -8 -35 -13 -45 -11 -10 2 -25 -1 -33 -7 -11 -8 -10 -9 4 -4 11 4 16 2 11 -5 -3 -6 -17 -8 -29 -5 -14 4 -29 0 -39 -9 -8 -8 -19 -15 -25 -15 -6 0 -11 -4 -11 -10 0 -5 -9 -10 -20 -10 -10 0 -24 -9 -30 -20 -13 -25 -30 -26 -37 -1 -3 13 -11 17 -25 13 -18 -4 -19 -3 -8 18 11 20 10 22 -5 17 -9 -4 -21 -7 -26 -7 -5 0 -9 -7 -9 -16 0 -9 -8 -28 -19 -42 -46 -66 -91 -286 -91 -449 0 -73 3 -93 14 -93 9 0 16 -17 21 -50 7 -48 8 -50 39 -50 20 0 40 8 51 20 10 11 26 20 36 20 10 0 32 17 49 39 17 21 57 56 88 76 31 21 75 50 98 65 38 25 125 61 234 96 25 8 65 21 90 29 70 23 187 45 236 45 44 0 44 0 44 36 l0 37 -142 -6 c-168 -6 -311 -38 -487 -110 -99 -40 -109 -42 -101 -23 14 35 82 171 89 176 3 3 15 21 25 40 10 19 31 49 46 65 15 17 30 37 33 46 3 9 19 23 36 30 37 17 40 43 9 70 -28 22 -35 23 -71 5z"></path><path id="pXPaPMnVK" d="M539 2343 c-6 -21 -15 -43 -20 -48 -33 -43 -89 -336 -89 -469 l0 -77 36 3 c31 3 38 8 49 38 7 19 17 78 23 130 6 52 23 140 38 195 15 55 31 119 38 143 6 23 14 42 18 42 5 0 8 18 8 40 0 22 -2 40 -5 40 -13 0 -45 -42 -40 -53 4 -7 -1 -3 -11 8 -14 17 -16 17 -11 2 6 -16 -8 -53 -24 -67 -3 -3 -11 -18 -17 -35 -6 -16 -11 -23 -11 -15 0 8 13 48 28 88 21 52 25 72 16 72 -8 0 -19 -17 -26 -37z"></path><path id="pg9vaeb2s" d="M1693 2060 c-46 -21 -83 -43 -83 -49 0 -6 -9 -11 -20 -11 -11 0 -23 -7 -26 -15 -4 -8 -12 -15 -20 -15 -9 0 -14 -12 -14 -35 0 -23 5 -35 14 -35 10 0 12 -11 8 -45 -7 -68 33 -200 69 -225 15 -11 34 -20 43 -20 9 0 16 -7 16 -15 0 -11 12 -15 43 -15 23 -1 53 -7 67 -15 25 -15 147 -20 185 -9 22 7 178 177 183 200 2 8 8 14 13 14 5 0 9 16 9 35 0 33 -2 35 -35 35 -35 0 -35 0 -35 44 0 44 -22 81 -33 54 -3 -7 -6 -2 -6 10 -1 34 -32 82 -53 82 -10 0 -18 5 -18 10 0 6 -9 10 -20 10 -12 0 -17 -5 -14 -14 8 -21 -11 -28 -43 -14 l-28 11 28 6 c25 5 27 8 15 24 -15 20 -74 37 -128 36 -19 0 -72 -18 -117 -39z m297 -54 c0 -8 -4 -18 -10 -21 -5 -3 -10 3 -10 14 0 12 5 21 10 21 6 0 10 -6 10 -14z"></path><path id="pM3Q8p4UF" d="M1388 1857 c-27 -24 -48 -48 -48 -55 0 -7 -7 -12 -15 -12 -10 0 -15 -11 -15 -35 0 -33 2 -35 35 -35 24 0 35 5 35 15 0 8 6 15 14 15 8 0 35 19 60 41 37 34 46 48 46 75 0 32 -2 34 -32 34 -24 -1 -46 -12 -80 -43z"></path><path id="pTzNePUlm" d="M2262 1738 c-132 -62 -132 -62 -132 -96 l0 -35 51 5 c70 7 279 110 279 138 0 10 -4 22 -10 25 -5 3 -10 2 -10 -3 0 -5 -12 -7 -26 -4 -16 3 -30 -1 -35 -9 -6 -9 -9 -10 -9 -2 0 7 8 16 17 22 10 5 15 12 13 15 -3 3 -65 -23 -138 -56z"></path><path id="pgBwVNxWD" d="M2787 1540 c-6 -25 -55 -28 -64 -4 -7 19 -43 12 -82 -15 -68 -47 -283 -87 -404 -75 l-68 7 3 -39 c3 -39 3 -39 63 -52 33 -7 133 -15 223 -19 l162 -6 -24 -41 c-13 -23 -40 -66 -60 -96 -20 -30 -36 -58 -36 -63 0 -4 -13 -20 -28 -35 -35 -33 -92 -123 -92 -144 0 -9 -7 -18 -15 -22 -9 -3 -15 -18 -15 -38 0 -26 6 -37 31 -51 30 -16 31 -19 15 -36 -9 -9 -16 -32 -16 -51 l0 -33 51 6 c56 7 117 41 215 118 131 104 274 288 274 353 0 44 -8 45 -37 3 -20 -27 -23 -29 -23 -10 0 11 -7 24 -16 27 -8 3 -12 10 -9 16 3 5 1 10 -5 10 -7 0 -9 24 -8 65 3 67 -8 90 -38 78 -7 -3 -19 -1 -25 3 -9 5 -7 9 7 15 13 4 20 17 22 37 2 27 0 29 -20 24 l-22 -5 23 31 c12 18 26 30 31 27 4 -3 6 4 3 15 -7 25 -9 25 -16 0z"></path><path id="pjX56TTck" d="M2920 1126 c0 -8 -4 -16 -8 -18 -4 -1 -30 -32 -57 -68 -85 -111 -214 -229 -344 -315 -95 -63 -121 -85 -121 -103 0 -15 -11 -29 -32 -42 -18 -10 -38 -24 -45 -29 -7 -6 -21 -11 -33 -11 -15 0 -20 -6 -20 -25 l0 -25 43 16 c100 39 216 98 294 150 166 110 376 341 352 386 -5 9 -9 25 -8 35 0 15 2 14 11 -4 11 -23 28 -31 28 -13 0 6 -5 10 -11 10 -8 0 -10 12 -6 35 5 32 4 35 -19 35 -14 0 -24 -6 -24 -14z"></path><path id="pSTEHDZGO" d="M2906 901 c-138 -168 -359 -329 -556 -404 -11 -4 -9 -6 6 -6 35 -2 234 105 325 173 90 68 241 220 272 274 10 18 16 32 14 32 -3 0 -30 -31 -61 -69z"></path><path id="p98PzeVaO" d="M960 729 c38 -33 162 -116 185 -126 11 -4 15 2 15 21 0 22 -4 26 -30 26 -23 0 -30 4 -30 20 0 16 -7 20 -30 20 -23 0 -30 4 -30 20 0 13 -7 20 -20 20 -11 0 -20 7 -20 15 0 11 -11 15 -37 15 l-38 -1 35 -30z"></path><path id="pxGQO2gpq" d="M931 713 c-1 -17 5 -23 19 -23 11 0 20 -7 20 -15 0 -9 9 -15 22 -15 l21 0 -23 25 c-13 14 -29 25 -36 25 -7 0 -15 6 -17 13 -3 6 -6 2 -6 -10z"></path><path id="p1hF9gk6m" d="M1030 640 c0 -12 28 -25 36 -17 3 3 -4 10 -15 17 -15 7 -21 7 -21 0z"></path><path id="p1BPZiIEzJ" d="M1090 595 c0 -9 9 -15 21 -15 18 0 19 2 9 15 -7 8 -16 15 -21 15 -5 0 -9 -7 -9 -15z"></path><path id="p1ADrskzKd" d="M1180 592 c0 -7 17 -18 63 -40 4 -2 7 8 7 22 0 23 -4 26 -35 26 -19 0 -35 -4 -35 -8z"></path><path id="pceiHdNbQ" d="M1180 545 c0 -10 9 -15 27 -15 29 0 29 2 -4 19 -19 10 -23 9 -23 -4z"></path><path id="pqxG36KRC" d="M1330 527 c0 -12 52 -37 78 -37 18 0 14 37 -4 44 -28 11 -74 7 -74 -7z"></path><path id="pSazNQ85H" d="M1330 479 c0 -11 43 -22 67 -17 11 2 2 8 -24 15 -24 6 -43 7 -43 2z"></path></g></g><g id="l2ZNzwHUFs38Ulw9LHyvlqH" fill="rgb(39,45,46)" style="transform: none;"><g><path id="pyl3EdAO5" d="M1598 3525 c-500 -69 -956 -361 -1230 -790 -87 -136 -166 -313 -203 -455 -9 -36 -21 -74 -26 -85 -17 -41 -40 -279 -38 -408 1 -72 8 -172 15 -222 8 -49 16 -101 18 -115 7 -47 68 -245 97 -315 50 -119 116 -232 216 -375 59 -83 196 -223 298 -304 253 -201 478 -301 810 -361 210 -38 491 -27 692 26 187 49 381 132 513 217 132 86 339 269 413 365 12 16 38 50 58 75 119 156 229 388 283 599 40 155 50 237 50 433 0 173 -3 209 -27 322 -85 404 -269 718 -582 999 -61 54 -239 170 -341 222 -305 155 -676 218 -1016 172z m532 -60 c509 -91 964 -427 1200 -887 282 -547 244 -1204 -97 -1710 -448 -664 -1286 -923 -2031 -626 -210 84 -390 205 -562 377 -239 240 -390 520 -462 851 -19 92 -22 134 -22 335 0 202 3 243 23 335 68 315 214 594 432 824 261 275 594 448 984 511 118 19 404 14 535 -10z"></path><path id="p9KEcIv1n" d="M2238 3369 c18 -19 15 -29 -9 -29 -15 0 -20 -5 -17 -22 4 -29 55 -44 78 -23 22 20 29 19 23 -3 -3 -12 4 -22 24 -31 15 -7 36 -17 45 -22 31 -16 46 -10 57 22 13 39 13 39 1 39 -5 0 -12 -11 -16 -24 -4 -16 -12 -24 -25 -23 -19 1 -19 8 -2 54 3 6 -5 16 -16 23 -14 7 -21 7 -21 0 0 -5 5 -10 10 -10 6 0 10 -5 10 -11 0 -6 -7 -9 -15 -5 -8 3 -15 1 -15 -4 0 -6 5 -10 10 -10 6 0 10 -4 10 -10 0 -5 -9 -10 -21 -10 -19 0 -20 4 -14 42 l7 42 -27 -18 c-28 -18 -28 -18 -22 3 8 32 -7 25 -20 -10 -7 -17 -18 -29 -24 -27 -21 7 -21 25 1 31 26 7 26 23 -2 38 -19 9 -21 9 -10 -2z"></path><path id="ppJT2T3E3" d="M2496 3239 c-18 -30 -14 -57 4 -29 8 12 10 10 10 -7 0 -25 10 -29 27 -12 9 9 10 7 6 -10 -9 -34 5 -24 22 16 17 41 13 53 -15 35 -18 -11 -20 -9 -20 13 0 34 -12 32 -34 -6z"></path><path id="poGIAqSAY" d="M2582 3208 c-32 -32 9 -96 43 -68 11 9 14 6 17 -11 5 -35 33 -47 57 -25 12 11 21 27 21 36 0 23 -24 43 -47 38 -11 -2 -22 5 -28 17 -12 24 -45 31 -63 13z m45 -32 c-9 -23 -37 -20 -37 3 0 21 20 33 34 20 5 -4 6 -15 3 -23z m73 -29 c0 -7 -5 -18 -12 -25 -15 -15 -39 3 -31 24 7 18 43 19 43 1z"></path><path id="paaHx13Nd" d="M1695 3204 c-78 -8 -239 -46 -324 -76 -201 -71 -375 -182 -531 -338 -198 -197 -322 -426 -382 -703 -32 -148 -32 -415 0 -575 13 -62 20 -117 17 -122 -3 -6 -1 -10 5 -10 7 0 9 -7 6 -15 -21 -52 -21 -51 2 -32 20 18 20 18 15 -3 -3 -12 -1 -25 4 -29 6 -3 14 -17 18 -30 7 -24 7 -24 -19 4 -14 15 -28 26 -31 23 -3 -2 13 -22 33 -44 34 -35 68 -115 42 -99 -6 3 -10 13 -10 22 0 9 -3 14 -6 10 -7 -7 24 -106 38 -124 5 -7 7 -17 3 -22 -3 -7 0 -8 10 -5 11 5 14 2 9 -10 -10 -27 14 -18 30 12 8 15 15 23 16 19 0 -12 -21 -51 -34 -60 -6 -5 -2 -7 12 -4 13 3 22 0 22 -6 0 -7 7 -3 15 7 8 11 15 15 15 8 0 -6 -9 -17 -21 -26 -26 -18 -19 -47 18 -76 14 -11 23 -20 19 -20 -4 0 0 -7 8 -16 9 -8 16 -21 16 -28 0 -6 20 -29 45 -51 25 -22 45 -45 45 -51 0 -11 42 -54 53 -54 4 0 16 -8 26 -17 109 -100 116 -104 294 -197 86 -45 232 -99 298 -110 58 -10 82 -15 87 -20 2 -3 13 -1 23 5 14 7 19 6 19 -2 0 -7 10 -9 25 -7 13 3 22 2 20 -3 -16 -25 290 -21 440 6 191 33 483 151 603 242 20 16 55 41 77 56 46 31 213 196 250 247 170 238 239 388 294 643 15 70 19 120 16 240 -3 167 -20 306 -40 322 -7 6 -15 31 -18 57 -5 49 -30 110 -53 129 -8 6 -14 21 -14 33 -1 18 -3 17 -16 -8 -9 -16 -12 -31 -7 -35 5 -3 10 -22 11 -41 1 -33 1 -34 -10 -10 -6 14 -10 51 -9 83 0 38 -3 56 -10 52 -6 -4 -9 -1 -7 6 3 15 -41 93 -49 85 -3 -2 2 -15 11 -28 17 -26 48 -108 41 -108 -14 0 -64 135 -60 159 4 20 4 22 -3 6 -7 -16 -14 -9 -48 50 -21 39 -37 75 -36 80 2 6 0 7 -4 3 -4 -4 -27 20 -52 55 -60 83 -200 219 -298 289 -235 168 -497 255 -784 263 -74 2 -153 1 -175 -1z m221 -39 c268 -14 584 -144 784 -320 69 -61 178 -175 213 -223 22 -30 33 -39 39 -30 7 13 9 10 12 -22 0 -8 7 -14 13 -13 26 6 116 -167 163 -311 90 -276 102 -533 39 -796 -56 -229 -127 -372 -275 -551 -183 -221 -442 -384 -719 -454 -324 -81 -665 -49 -951 90 -95 46 -229 130 -253 159 -7 9 -17 16 -22 16 -10 0 -129 115 -129 125 0 4 19 -11 43 -33 39 -38 173 -142 182 -142 2 0 21 -12 42 -26 112 -76 307 -152 476 -185 83 -16 196 -26 145 -12 -10 2 -18 10 -18 17 0 13 -134 39 -210 41 -86 3 -170 32 -170 60 0 10 -11 15 -35 15 -52 0 -205 86 -205 115 0 9 -9 15 -23 15 -13 0 -32 9 -42 20 -10 11 -23 20 -30 20 -6 0 -18 15 -26 32 -8 18 -24 37 -36 43 -13 5 -23 13 -23 17 0 5 -6 8 -14 8 -8 0 -18 9 -21 20 -3 11 -11 20 -16 20 -5 0 -9 6 -9 14 0 8 -4 16 -8 18 -5 2 -30 30 -57 63 -153 189 -258 437 -296 695 -5 36 -13 91 -18 122 -12 71 2 224 29 334 40 158 121 338 213 474 70 102 243 273 348 343 200 132 495 238 624 222 35 -4 45 -2 35 5 -10 7 5 8 50 5 36 -2 106 -7 156 -10z"></path><path id="pwSM9AGY0" d="M1171 2970 c-205 -113 -414 -335 -531 -564 -61 -118 -65 -136 -35 -136 16 0 26 8 33 28 7 17 11 21 11 10 1 -10 6 -18 11 -18 6 0 10 -13 10 -30 0 -16 4 -30 8 -30 10 0 18 16 61 113 90 204 296 427 493 534 40 22 48 31 48 55 0 21 -5 28 -20 28 -13 0 -20 7 -20 20 0 26 -5 25 -69 -10z"></path><path id="pqQmVMPUf" d="M1125 2452 c-33 -7 -36 -17 -4 -16 30 1 46 9 32 16 -4 3 -17 3 -28 0z"></path><path id="pIyxWenPn" d="M1023 2415 c-47 -23 -47 -24 -20 -30 15 -4 34 -5 42 -1 21 8 19 -11 -2 -24 -14 -9 -10 -10 22 -6 22 3 50 6 63 6 13 0 22 6 22 15 0 8 -7 15 -15 15 -9 0 -27 11 -40 24 l-24 24 -48 -23z"></path><path id="poXXdERIT" d="M3102 2070 l5 -50 -32 0 -32 0 5 -157 c6 -238 -24 -383 -123 -587 -53 -107 -58 -146 -20 -146 18 0 25 -5 25 -20 0 -36 16 -21 58 53 123 215 180 461 169 725 -6 150 -22 232 -44 232 -13 0 -15 -10 -11 -50z"></path><path id="pcKB8h86h" d="M1800 2085 c0 -8 6 -15 13 -16 6 0 22 -2 35 -5 17 -3 22 1 22 16 0 16 -7 20 -35 20 -24 0 -35 -5 -35 -15z"></path><path id="p15fPPT55Y" d="M1880 2066 c0 -14 46 -30 67 -24 6 2 27 -15 47 -36 l36 -40 0 33 c0 41 -20 61 -60 61 -17 0 -29 4 -26 8 2 4 -11 9 -30 10 -24 2 -34 -2 -34 -12z"></path><path id="prmvYcPFB" d="M2357 1793 c-11 -10 -8 -53 3 -53 6 0 10 7 10 15 0 9 7 18 15 21 8 4 15 10 15 15 0 10 -33 12 -43 2z"></path><path id="pJBnRjXmR" d="M2465 1780 c-4 -6 -11 -8 -16 -5 -5 4 -9 2 -9 -4 0 -6 -12 -8 -30 -4 -19 3 -30 1 -30 -5 0 -6 7 -9 15 -6 25 10 17 -5 -12 -20 -28 -15 -28 -15 -4 -16 13 0 41 5 62 12 31 9 39 16 39 35 0 25 -5 29 -15 13z"></path><path id="p8LdC5DVY" d="M2681 1548 c-1 -35 2 -46 14 -44 20 3 28 13 30 37 1 15 -3 19 -16 16 -12 -3 -19 2 -22 17 -2 11 -5 0 -6 -26z"></path><path id="pP7bl4ME7" d="M2789 1550 c-2 -14 -10 -26 -16 -26 -7 -1 -20 -2 -28 -3 -19 -1 -20 -27 -1 -34 17 -7 59 48 53 71 -2 12 -5 10 -8 -8z"></path><path id="pvdJ3XaTZ" d="M2348 539 c-10 -5 -45 -11 -80 -12 -37 -2 -63 -8 -66 -15 -2 -7 -19 -12 -38 -12 -23 0 -34 -5 -34 -14 0 -20 -21 -31 -30 -16 -10 17 -140 3 -140 -15 0 -7 -6 -16 -12 -18 -7 -3 -1 -6 14 -6 41 -1 215 34 287 59 66 22 144 59 126 59 -5 0 -18 -4 -27 -10z"></path><path id="pMdxupdhS" d="M1750 446 c0 -16 31 -26 85 -26 54 0 85 10 85 26 0 11 -19 14 -85 14 -66 0 -85 -3 -85 -14z"></path><path id="pi1fXSzE0" d="M2730 3110 c0 -27 -3 -30 -20 -25 -26 8 -26 -7 0 -23 27 -17 40 -7 40 29 0 20 4 28 11 23 7 -4 10 -1 7 7 -3 8 -12 15 -21 17 -13 3 -17 -4 -17 -28z"></path><path id="pg1Vc04Hj" d="M3201 2595 c-13 -7 -20 -15 -14 -18 5 -3 15 -2 23 4 27 17 35 8 11 -12 -28 -23 -22 -36 8 -19 15 7 21 7 21 0 0 -6 -6 -13 -14 -16 -8 -3 -14 -15 -13 -26 1 -16 6 -19 29 -14 32 6 39 -9 8 -17 -11 -3 -20 -10 -20 -16 0 -9 5 -9 21 -1 11 7 24 8 27 4 4 -4 3 -8 -3 -11 -22 -8 -39 -22 -34 -28 8 -8 59 16 59 27 0 5 -7 22 -16 39 -12 24 -20 29 -37 24 -21 -6 -21 -5 -3 9 16 13 17 18 5 45 -17 37 -28 43 -58 26z"></path><path id="pS5tB0Bd7" d="M3340 2396 c0 -15 -3 -16 -15 -6 -8 7 -22 10 -30 6 -17 -6 -20 -42 -5 -51 6 -4 10 -12 9 -18 -3 -24 1 -37 11 -37 6 0 10 7 10 15 0 9 6 12 15 9 8 -4 15 -1 15 6 0 7 7 10 14 7 10 -4 13 -1 9 9 -3 10 -16 13 -39 10 -28 -3 -34 0 -34 15 0 21 16 26 23 7 3 -10 8 -9 20 2 11 10 13 20 7 30 -8 13 -10 12 -10 -4z"></path><path id="paXfyDf7X" d="M3343 2233 c-7 -2 -13 -16 -13 -29 0 -20 5 -24 29 -24 37 0 59 24 41 45 -12 15 -34 18 -57 8z m52 -23 c-3 -5 -15 -10 -26 -10 -11 0 -17 5 -14 10 3 6 15 10 26 10 11 0 17 -4 14 -10z"></path><path id="pr0K7io39" d="M3377 2169 c-9 -5 -22 -7 -27 -4 -6 4 -10 -7 -10 -24 0 -38 12 -40 34 -6 19 29 33 32 40 8 3 -11 4 -8 3 6 -2 28 -15 35 -40 20z"></path><path id="pDo9oSPbP" d="M235 1810 c3 -5 19 -10 36 -10 41 0 39 -28 -3 -32 -25 -2 -34 -8 -36 -25 -4 -27 14 -31 21 -5 4 16 5 16 6 0 0 -10 4 -18 7 -18 4 0 13 8 20 18 12 16 13 15 14 -5 0 -19 -5 -23 -29 -23 -41 0 -47 -16 -14 -34 26 -14 27 -15 6 -16 -38 0 -26 -20 12 -20 29 0 35 -4 35 -22 0 -20 -1 -20 -20 -3 -10 9 -26 15 -35 12 -17 -7 -21 -37 -5 -37 6 0 10 5 10 12 0 6 8 4 19 -6 28 -26 52 -11 49 31 -2 26 -8 38 -26 46 -22 10 -22 11 -4 18 15 6 19 18 21 68 l2 61 -46 0 c-28 0 -44 -4 -40 -10z"></path><path id="pVFcKqJKo" d="M283 1549 c-40 -12 -42 -25 -7 -33 l27 -7 -22 -15 c-28 -20 -20 -32 21 -27 l33 4 -27 -18 c-37 -23 -35 -40 5 -49 l32 -7 -28 -10 c-34 -11 -34 -46 0 -62 18 -9 19 -13 7 -21 -16 -9 -10 -44 7 -44 4 0 6 7 3 15 -4 8 -1 15 5 15 6 0 11 -4 11 -10 0 -5 5 -10 10 -10 6 0 10 8 10 17 0 15 1 15 13 -2 17 -23 28 -8 16 24 -7 16 -14 21 -27 16 -14 -5 -15 -4 -4 6 15 16 16 55 2 64 -6 4 -8 11 -5 16 4 5 -1 9 -9 9 -17 0 -22 25 -6 35 14 8 0 35 -19 36 -10 0 -11 2 -3 6 18 7 15 31 -5 36 -17 4 -17 5 0 6 9 0 17 6 17 11 0 12 -13 12 -57 -1z m74 -194 c-8 -19 -47 -20 -47 -1 0 8 10 16 23 18 28 5 31 3 24 -17z"></path><path id="pbKUDoePJ" d="M368 1234 c-16 -8 -28 -17 -28 -20 0 -4 12 -4 28 0 25 5 26 5 5 -6 -30 -15 -29 -26 2 -34 24 -6 24 -7 8 -20 -22 -16 -7 -18 36 -3 38 13 40 26 6 35 -22 6 -24 8 -10 18 10 7 13 18 9 29 -8 21 -20 21 -56 1z"></path><path id="pS7K70WZz" d="M450 1127 c0 -8 -11 -19 -25 -25 -14 -6 -25 -16 -25 -22 0 -13 6 -13 40 5 28 15 43 55 20 55 -5 0 -10 -6 -10 -13z"></path><path id="pGZ0UFuMY" d="M446 1071 c-34 -35 -29 -49 16 -44 l33 4 -24 -19 c-16 -13 -22 -25 -18 -36 10 -25 52 -17 52 9 0 11 4 23 9 26 15 12 -5 49 -27 49 -16 0 -18 3 -9 12 7 7 12 16 12 20 0 16 -17 8 -44 -21z"></path><path id="p12HphERFa" d="M512 970 c-32 -43 -29 -54 16 -47 l37 6 -22 -19 c-31 -24 -29 -40 4 -40 26 0 26 -1 7 -15 -31 -23 4 -18 37 6 36 25 31 37 -13 32 -31 -3 -31 -2 -10 8 23 13 30 29 11 29 -5 0 -7 5 -4 10 3 6 -4 10 -16 10 -16 0 -20 5 -16 20 8 32 -8 32 -31 0z"></path><path id="pIe7Yc9Vo" d="M1485 324 c-4 -10 -11 -29 -15 -41 -6 -14 -5 -25 1 -28 14 -9 43 65 30 78 -7 7 -12 4 -16 -9z"></path><path id="p1D9bucxAW" d="M1520 316 c0 -9 7 -16 15 -16 8 0 19 -9 25 -19 14 -27 13 -31 -7 -31 -13 0 -14 -3 -5 -12 15 -15 40 5 44 37 4 34 32 15 33 -22 0 -20 6 -29 20 -31 15 -2 23 6 31 33 13 43 7 50 -58 58 -27 4 -59 9 -73 13 -19 5 -25 2 -25 -10z"></path></g></g><g id="l4ajsAsolbtHZ482entAUx2" fill="rgb(14,67,55)" style="transform: none;"><g><path id="p4Q9ZqJCg" d="M1663 3193 c-40 -5 -44 -23 -5 -24 15 0 21 -3 14 -6 -6 -2 -10 -8 -7 -13 3 -4 -12 -11 -33 -15 -105 -19 -132 -27 -132 -41 0 -8 4 -14 9 -14 4 0 6 -11 3 -25 -3 -20 -13 -28 -48 -36 -36 -9 -44 -16 -44 -34 l0 -23 58 18 c31 9 77 20 102 24 42 7 44 6 25 -9 -19 -16 -19 -16 13 -12 17 2 32 3 32 2 0 -1 -5 -17 -12 -36 -13 -36 -52 -74 -107 -102 -76 -38 -90 -49 -161 -123 -70 -74 -128 -172 -115 -194 3 -5 1 -10 -6 -10 -27 0 8 -19 96 -53 125 -48 244 -109 347 -178 l88 -60 0 31 c0 16 -4 30 -10 30 -5 0 -19 9 -30 20 -11 11 -27 20 -35 20 -8 0 -15 4 -15 10 0 5 -31 27 -69 49 l-69 40 6 48 c2 27 9 53 14 60 5 6 8 30 6 53 -2 34 3 45 24 64 48 40 93 23 190 -72 61 -59 120 -191 189 -422 6 -19 18 -54 27 -77 21 -53 49 -58 55 -10 l4 32 1 -32 c3 -44 19 -42 28 4 21 112 -80 394 -231 642 -30 51 -55 96 -55 101 0 5 9 11 19 15 11 3 22 12 25 20 3 8 12 15 20 15 20 0 76 91 76 124 0 45 -17 66 -53 66 -46 0 -77 10 -77 26 0 7 -14 15 -32 17 -18 2 27 5 100 5 144 2 162 8 162 55 0 22 -5 25 -52 31 -56 6 -280 6 -335 -1z"></path><path id="p13QmGmiTr" d="M2732 2838 c-27 -27 -14 -81 33 -138 49 -60 43 -81 -9 -31 -22 22 -42 31 -64 31 -18 0 -32 -4 -32 -10 0 -5 -9 -10 -20 -10 -18 0 -20 -7 -20 -57 0 -57 16 -179 41 -318 12 -67 11 -72 -13 -115 -49 -89 -62 -107 -95 -129 -19 -12 -38 -33 -43 -46 -5 -14 -15 -25 -22 -25 -37 0 -76 -95 -66 -161 l3 -24 20 21 c19 19 145 108 183 129 41 22 172 181 172 208 0 7 4 17 8 23 10 10 46 113 57 159 l7 30 18 -25 c17 -22 18 -22 22 -4 5 19 30 -27 72 -128 28 -70 49 -29 26 51 -12 44 -3 79 21 83 18 3 17 9 -20 86 -22 45 -36 82 -31 82 18 0 10 19 -10 25 -13 4 -20 15 -20 32 0 15 3 23 7 19 4 -4 8 -15 8 -24 0 -9 6 -17 13 -17 8 0 20 -9 28 -19 8 -11 14 -14 14 -7 0 37 -236 321 -266 321 -6 0 -15 -5 -22 -12z"></path><path id="pNAsLzBHo" d="M2333 2423 c-6 -16 -23 -59 -37 -98 -15 -38 -33 -83 -40 -100 -43 -94 -62 -162 -73 -259 -7 -69 10 -57 63 43 52 99 58 90 10 -15 -26 -54 -31 -74 -21 -74 8 0 17 11 21 25 4 15 13 25 24 25 39 0 130 306 130 438 0 41 -1 42 -33 42 -26 0 -34 -5 -44 -27z"></path><path id="p138wMVryb" d="M1450 2334 c0 -19 8 -25 43 -35 23 -7 46 -16 52 -21 5 -4 19 -8 31 -8 12 0 24 -4 26 -9 6 -16 107 -61 138 -61 25 0 30 -4 30 -25 0 -22 4 -25 35 -25 19 0 35 3 35 8 0 12 -181 127 -240 152 -30 13 -76 29 -102 36 -47 12 -48 12 -48 -12z"></path><path id="pDHxpom0q" d="M1790 2216 c0 -2 11 -11 25 -20 24 -16 25 -16 25 4 0 15 -7 20 -25 20 -14 0 -25 -2 -25 -4z"></path><path id="pOg1MkJME" d="M2729 1995 c-60 -58 -136 -124 -169 -147 -33 -23 -60 -46 -60 -50 0 -4 11 -8 25 -8 14 0 25 -4 25 -10 0 -5 7 -10 15 -10 8 0 15 -4 15 -10 0 -5 5 -10 11 -10 13 0 39 -25 39 -38 0 -5 11 -13 25 -16 14 -4 25 -13 25 -22 0 -51 74 -3 78 50 1 17 11 39 22 51 11 12 20 30 20 41 0 12 3 24 8 28 4 4 7 11 7 14 1 4 4 17 9 29 23 68 39 213 24 213 -5 0 -58 -47 -119 -105z"></path></g></g><g id="l266o2bSJsjCYEaPuEWwuvx" fill="rgb(50,66,61)" style="transform: none;"><g><path id="pyUKzZ5mz" d="M2215 3330 c-8 -13 12 -40 29 -40 6 0 3 5 -6 11 -10 5 -18 14 -18 19 0 5 8 11 18 13 15 4 15 5 0 6 -9 0 -20 -4 -23 -9z"></path><path id="pFg5YLTTQ" d="M2310 3325 c-7 -8 -19 -15 -26 -15 -8 0 -14 -4 -14 -10 0 -17 15 -11 40 15 13 14 21 25 18 25 -3 0 -11 -7 -18 -15z"></path><path id="p1CEE4xgm" d="M2364 3275 c-2 -28 11 -25 19 5 3 11 0 20 -6 20 -7 0 -13 -11 -13 -25z"></path><path id="pGgdnW3Ol" d="M2528 3213 c-10 -2 -18 -9 -18 -14 0 -14 16 -11 30 6 7 8 11 14 9 14 -2 -1 -12 -3 -21 -6z"></path><path id="pIHh73Tzr" d="M2582 3198 c-15 -15 -16 -35 -2 -43 6 -3 7 1 4 10 -4 8 -1 22 6 30 15 18 9 20 -8 3z"></path><path id="pdu1IriFL" d="M1605 3184 c-191 -28 -412 -120 -585 -243 -95 -67 -292 -264 -323 -322 l-18 -34 33 39 c138 164 227 248 354 332 150 100 346 176 538 209 84 14 105 20 95 28 -2 2 -44 -2 -94 -9z"></path><path id="pL02WbuF1" d="M1730 3190 c0 -12 57 -12 85 0 15 6 6 9 -32 9 -29 1 -53 -3 -53 -9z"></path><path id="pJIOcsXyN" d="M1930 3191 c0 -6 10 -11 23 -11 35 0 67 -11 61 -21 -3 -5 13 -9 35 -9 48 0 58 25 14 34 -77 14 -133 17 -133 7z"></path><path id="p1G4NkRPO9" d="M2120 3150 c0 -16 7 -20 35 -20 40 0 49 24 13 34 -38 10 -48 7 -48 -14z"></path><path id="pN1k3oycm" d="M2650 3155 c-23 -28 17 -72 42 -47 8 8 5 9 -10 5 -26 -6 -40 20 -22 42 7 8 10 15 7 15 -2 0 -10 -7 -17 -15z"></path><path id="pfJbLVrby" d="M1535 3110 c-98 -13 -284 -89 -378 -153 -22 -15 -26 -22 -15 -29 10 -7 8 -8 -7 -7 -36 3 -45 -1 -45 -17 0 -8 -4 -12 -10 -9 -5 3 -10 -2 -10 -12 0 -15 -2 -16 -10 -3 -9 13 -14 8 -12 -12 1 -3 -6 -12 -15 -20 -14 -11 -16 -11 -8 1 5 10 4 12 -4 7 -6 -4 -9 -11 -7 -15 3 -4 -20 -30 -51 -57 -93 -83 -213 -236 -273 -348 -15 -28 -32 -51 -38 -51 -15 0 -41 -36 -42 -57 0 -10 6 -18 14 -18 8 0 16 -4 18 -9 5 -15 68 -24 68 -10 0 16 66 144 103 199 157 233 377 397 660 490 96 32 114 44 80 53 -14 3 -10 8 15 18 25 11 32 19 32 41 0 15 -1 27 -2 27 -2 -1 -30 -5 -63 -9z m-385 -245 c0 -2 -20 -18 -46 -35 -119 -83 -287 -278 -374 -435 -50 -91 -65 -94 -19 -4 59 119 122 204 228 309 102 102 211 187 211 165z"></path><path id="pUn2yLK6Y" d="M2310 3095 c0 -20 5 -25 25 -25 14 0 25 -4 25 -10 0 -5 16 -10 35 -10 19 0 35 4 35 9 0 9 -39 30 -93 50 -25 10 -27 9 -27 -14z"></path><path id="p10Bd3JB1q" d="M2731 3083 c-1 -7 -9 -10 -18 -7 -16 5 -16 4 0 -6 21 -13 32 -8 24 12 -4 9 -6 9 -6 1z"></path><path id="pKC6ERblW" d="M2480 3015 c0 -20 5 -25 25 -25 16 0 25 -6 25 -15 0 -10 10 -15 30 -15 23 0 30 -4 30 -20 0 -13 7 -20 20 -20 11 0 20 -6 20 -14 0 -8 9 -18 20 -21 11 -3 20 -11 20 -16 0 -5 17 -9 38 -9 l37 0 -30 28 c-33 31 -190 136 -217 145 -14 5 -18 1 -18 -18z"></path><path id="pflexarNt" d="M2750 2824 c0 -21 3 -24 14 -15 11 9 27 -3 81 -63 115 -128 209 -277 282 -445 14 -34 22 -44 18 -26 -9 49 -109 244 -166 326 -63 89 -161 202 -201 231 l-28 19 0 -27z"></path><path id="pFT5zd6P7" d="M642 2538 c-55 -91 -139 -278 -124 -278 4 0 20 34 36 75 16 41 49 109 73 151 25 42 42 78 40 80 -3 3 -14 -10 -25 -28z"></path><path id="pTSDuD2Oy" d="M2975 2417 c-4 -19 -5 -42 -3 -52 2 -10 -3 -20 -9 -22 -7 -3 -13 2 -13 11 0 9 -4 16 -10 16 -13 0 -13 0 11 -54 48 -109 84 -260 104 -430 13 -113 19 -98 17 44 -2 123 22 2 27 -137 1 -26 21 -32 21 -7 0 8 4 13 10 9 5 -3 7 -21 5 -40 -3 -20 0 -35 5 -35 15 0 12 242 -5 345 -8 50 -28 129 -44 177 -31 92 -88 208 -102 208 -4 0 -11 -15 -14 -33z"></path><path id="pQkUddmUM" d="M1350 2361 c0 -14 12 -22 48 -31 26 -7 66 -19 90 -26 23 -8 50 -14 58 -14 9 0 22 -7 30 -15 9 -8 32 -15 52 -15 l37 0 -29 25 c-17 14 -35 24 -42 21 -7 -3 -18 2 -25 10 -7 8 -18 13 -26 10 -9 -4 -11 -1 -7 6 5 7 0 9 -14 6 -12 -4 -22 -2 -22 3 0 5 -3 8 -7 7 -5 -1 -32 6 -62 15 -69 22 -81 21 -81 -2z"></path><path id="pnPBqS8Kq" d="M1766 2239 c10 -12 31 -30 47 -41 l27 -19 0 30 c0 28 -3 31 -30 31 -16 0 -30 5 -30 10 0 6 -7 10 -17 10 -14 0 -14 -2 3 -21z"></path><path id="pmoOUFXeF" d="M496 2218 c-3 -13 -6 -30 -6 -38 1 -13 2 -13 9 0 16 27 22 60 13 60 -5 0 -12 -10 -16 -22z"></path><path id="pXtvBaxTo" d="M1710 2215 c0 -20 5 -25 25 -25 16 0 25 -6 25 -15 0 -11 11 -15 37 -15 36 0 36 0 17 18 -21 20 -88 62 -98 62 -3 0 -6 -11 -6 -25z"></path><path id="p19NNVTojK" d="M3334 2215 c-3 -8 -3 -19 1 -25 7 -12 42 -13 49 -1 3 4 -6 6 -19 3 -27 -5 -32 7 -13 26 9 9 9 12 0 12 -7 0 -15 -7 -18 -15z"></path><path id="phAdpkWCZ" d="M461 2070 c-19 -90 -25 -160 -12 -160 6 0 11 16 11 38 1 20 7 67 14 105 15 77 3 93 -13 17z"></path><path id="pY3t2abPG" d="M2030 2035 c0 -28 4 -35 19 -35 11 0 22 6 24 13 4 10 6 10 6 0 2 -30 21 -10 21 22 0 37 -25 50 -33 18 -4 -17 -5 -17 -6 0 0 9 -8 17 -16 17 -10 0 -15 -11 -15 -35z"></path><path id="pQIavvwnG" d="M2200 1993 c1 -36 1 -37 13 -15 7 12 16 20 19 16 4 -3 4 3 1 15 -9 37 -33 25 -33 -16z"></path><path id="plb9Yfwkq" d="M2250 1980 c-9 -16 -8 -20 5 -20 8 0 15 9 15 20 0 11 -2 20 -5 20 -2 0 -9 -9 -15 -20z"></path><path id="pV9UxopAx" d="M2440 1881 c0 -5 -9 -11 -20 -14 -15 -4 -20 -14 -20 -36 0 -17 3 -31 8 -31 17 1 42 29 42 49 0 12 6 21 15 21 8 0 15 5 15 10 0 6 -9 10 -20 10 -11 0 -20 -4 -20 -9z"></path><path id="pALtbg66U" d="M440 1865 c-4 -35 4 -65 14 -54 3 2 1 20 -4 39 -5 22 -9 28 -10 15z"></path><path id="pMF1luMb5" d="M2525 1820 c-12 -4 -27 -15 -34 -24 -12 -14 -9 -16 23 -16 32 0 36 3 36 25 0 14 -1 25 -2 24 -2 0 -12 -4 -23 -9z"></path><path id="p1DeJzkrse" d="M441 1727 c1 -110 23 -196 45 -174 3 3 3 57 -1 119 -6 102 -9 114 -26 115 -17 2 -19 -5 -18 -60z"></path><path id="pb5kk23AX" d="M280 1760 c-23 -7 -23 -8 -3 -9 12 -1 24 -9 26 -18 3 -11 5 -7 6 10 0 15 0 27 -1 26 -2 -1 -14 -5 -28 -9z"></path><path id="pauufUyPF" d="M2660 1646 c0 -65 3 -86 13 -86 8 0 20 19 26 43 7 23 18 48 23 55 7 8 6 17 -3 28 -10 13 -10 17 2 25 12 7 12 9 -1 9 -8 0 -25 3 -37 6 -23 6 -23 5 -23 -80z"></path><path id="p15qQNJcMB" d="M274 1613 c11 -13 25 -23 33 -23 7 0 12 10 12 23 -1 16 -2 18 -6 5 -2 -10 -7 -18 -10 -18 -4 0 -16 8 -27 18 -21 17 -21 17 -2 -5z"></path><path id="pIlZcWa7I" d="M475 1499 c9 -71 45 -111 45 -50 0 57 -12 91 -31 91 -16 0 -18 -6 -14 -41z"></path><path id="pbWoMFYIu" d="M318 1454 c-13 -13 5 -44 26 -43 18 1 18 2 3 6 -13 3 -17 11 -14 24 5 18 -3 25 -15 13z"></path><path id="p3qQQSwiP" d="M521 1338 c26 -80 49 -102 49 -45 0 56 -10 77 -36 77 -21 0 -22 -2 -13 -32z"></path><path id="pT4QLfpv" d="M345 1309 c-17 -8 -16 -8 7 -4 19 4 30 0 38 -12 11 -17 11 -17 6 0 -3 10 -6 21 -6 23 0 7 -24 3 -45 -7z"></path><path id="p13NJcrLdN" d="M380 1234 l-25 -15 25 7 c28 7 35 12 29 18 -2 2 -15 -2 -29 -10z"></path><path id="p19FXXDGBl" d="M410 1170 c13 -8 13 -10 -2 -10 -9 0 -19 -4 -23 -10 -3 -5 7 -5 25 1 35 13 40 29 8 29 -19 0 -20 -2 -8 -10z"></path><path id="pW9DfMbyz" d="M449 1064 c-23 -25 -23 -26 -2 -13 13 7 25 19 27 26 8 19 2 16 -25 -13z"></path><path id="pNGh6HfRq" d="M486 1015 c-11 -8 -15 -15 -9 -15 7 0 14 -8 16 -17 4 -15 5 -14 6 3 0 11 6 25 13 32 17 17 -3 14 -26 -3z"></path><path id="p2PAamm14" d="M512 960 c-31 -41 -28 -48 4 -10 15 17 24 33 22 35 -2 3 -14 -9 -26 -25z"></path><path id="pBOEUTujr" d="M545 905 l-30 -24 34 -1 34 0 -19 -22 c-18 -20 -16 -20 16 3 l35 24 -38 3 -38 3 23 19 c13 11 21 19 18 20 -3 0 -18 -11 -35 -25z"></path><path id="p9c4obgda" d="M1482 293 c-6 -20 -7 -32 -2 -27 10 10 25 64 18 64 -3 0 -10 -16 -16 -37z"></path><path id="pkAzhBQh5" d="M1555 299 c4 -6 11 -23 16 -37 8 -26 9 -26 6 5 -2 18 1 35 7 37 6 2 1 5 -12 5 -14 1 -21 -3 -17 -10z"></path><path id="pnCCYrxlN" d="M1630 276 c0 -16 7 -26 21 -29 12 -3 18 -3 15 0 -3 4 -1 12 5 19 14 17 3 34 -22 34 -13 0 -19 -7 -19 -24z m30 -1 c0 -8 -4 -15 -10 -15 -5 0 -10 7 -10 15 0 8 5 15 10 15 6 0 10 -7 10 -15z"></path></g></g><g id="l3ihqG6n9VnoxJrLbGpYzjl" fill="rgb(20,95,64)" style="transform: none;"><g><path id="pOnSklQjB" d="M1986 3177 c26 -10 30 -14 18 -24 -9 -9 -48 -13 -119 -13 -87 0 -105 -3 -105 -15 0 -8 -9 -15 -20 -15 -33 0 -26 -38 8 -43 16 -2 9 -5 -20 -6 -32 -1 -48 -5 -48 -14 0 -10 23 -13 96 -14 64 0 99 -4 107 -13 9 -10 9 -11 -3 -6 -10 5 -10 3 2 -6 15 -13 14 -18 -14 -61 -17 -26 -35 -47 -41 -47 -6 0 -17 -7 -26 -15 -9 -9 -28 -26 -43 -38 l-26 -22 65 -105 c118 -191 197 -368 233 -517 13 -55 40 -74 40 -29 0 73 -76 303 -140 424 -15 28 -24 52 -19 52 5 0 9 6 9 13 0 16 92 117 107 117 7 0 18 10 24 23 7 12 16 25 21 28 16 10 40 129 34 164 -6 31 -12 36 -54 48 -30 9 -48 20 -50 32 -4 16 3 17 78 11 89 -8 110 -1 110 40 0 19 -8 25 -41 34 -58 16 -148 30 -184 29 l-30 -1 31 -11z"></path><path id="p8jNwNAdc" d="M2650 2901 c-16 -32 -12 -73 12 -98 l21 -23 -50 0 c-64 0 -120 -28 -153 -78 -23 -33 -25 -44 -24 -154 0 -65 -3 -118 -8 -118 -4 0 -8 -16 -8 -35 0 -19 -4 -35 -10 -35 -5 0 -6 21 -2 53 3 28 7 99 7 157 l0 105 -40 0 c-34 0 -42 -5 -66 -40 -30 -44 -62 -134 -84 -240 -8 -38 -21 -92 -29 -120 -7 -27 -17 -94 -21 -147 -7 -95 -6 -98 14 -98 12 0 21 6 21 14 0 13 29 92 56 151 7 17 25 62 40 100 35 94 53 133 54 113 0 -37 -40 -211 -68 -292 l-30 -86 24 0 c17 0 23 6 26 27 3 25 7 20 36 -39 17 -37 32 -73 32 -81 0 -9 13 -17 33 -20 25 -3 36 1 52 19 11 13 26 24 33 24 7 0 17 11 22 25 5 13 25 35 44 47 19 13 40 32 46 43 5 11 24 43 40 70 32 55 39 121 19 205 -19 81 -36 229 -28 241 4 7 3 23 -2 36 -5 15 -5 22 0 18 5 -3 16 1 24 9 12 13 21 7 69 -42 30 -31 69 -76 88 -100 48 -63 49 -43 1 35 l-42 68 45 -50 46 -50 0 38 c0 26 -4 37 -15 37 -13 0 -21 26 -16 54 1 4 -18 31 -41 60 -74 87 -72 84 -58 101 10 12 16 13 29 4 9 -6 -13 16 -48 50 -35 33 -67 61 -72 61 -5 0 -13 -9 -19 -19z"></path><path id="pp33ltCYw" d="M1611 2708 c-14 -5 -40 -26 -58 -46 -33 -38 -40 -52 -24 -52 15 0 20 -41 6 -46 -10 -4 -13 -18 -10 -44 3 -28 -1 -44 -16 -62 -19 -21 -20 -23 -3 -27 21 -4 44 -25 44 -40 0 -16 70 -14 175 5 84 14 91 14 100 -1 5 -10 32 -47 58 -84 27 -36 56 -83 64 -103 13 -32 20 -38 44 -38 26 0 28 2 20 23 -5 12 -15 45 -22 72 -7 28 -19 63 -26 78 -8 16 -16 38 -19 50 -9 49 -85 185 -125 222 -6 6 -23 22 -38 36 -40 38 -79 62 -90 55 -5 -3 -20 -2 -33 3 -13 5 -33 5 -47 -1z"></path></g></g><g id="l3A9RboGSLSnFi1fOcITXMo" fill="rgb(16,65,107)" style="transform: none;"><g><path id="plOX08se8" d="M1058 2358 c-21 -6 -38 -15 -38 -22 0 -7 -12 -24 -27 -39 -16 -14 -37 -43 -48 -64 -11 -21 -23 -40 -27 -43 -11 -8 -128 -259 -128 -274 0 -8 -7 -17 -16 -20 -9 -4 -14 -9 -12 -12 3 -3 55 17 116 45 235 106 398 150 572 156 63 2 97 1 75 -1 -169 -17 -474 -111 -569 -174 -23 -15 -67 -44 -98 -65 -31 -20 -71 -55 -88 -76 -17 -22 -38 -39 -47 -39 -9 0 -27 -9 -39 -21 l-22 -21 -7 59 c-4 32 -9 67 -13 78 -5 17 -7 16 -14 -10 -4 -17 -5 22 -3 88 4 111 3 117 -15 117 -13 0 -20 -7 -20 -20 0 -13 -7 -20 -20 -20 -17 0 -20 -7 -20 -45 0 -31 4 -45 13 -45 11 0 16 -29 21 -120 10 -176 44 -340 72 -340 6 0 19 -11 28 -25 13 -20 25 -25 56 -25 49 0 90 15 90 34 0 7 7 16 15 19 21 9 45 73 45 122 0 101 76 233 168 293 115 74 306 149 453 177 95 18 119 19 119 5 0 -5 -6 -10 -14 -10 -8 0 -21 -6 -28 -12 -7 -7 -25 -19 -40 -27 -50 -26 -163 -116 -173 -138 -5 -13 -18 -23 -27 -23 -10 0 -18 -3 -18 -8 0 -4 -25 -34 -56 -67 -119 -126 -224 -294 -224 -357 0 -36 1 -38 33 -38 22 0 40 8 53 23 77 90 104 128 118 172 14 43 34 68 151 178 74 71 135 127 135 125 0 -2 -9 -32 -20 -66 -11 -35 -20 -81 -20 -103 0 -38 1 -39 35 -39 19 0 35 5 35 10 0 23 20 7 31 -25 10 -27 19 -35 37 -35 13 0 36 -8 50 -18 82 -56 172 -81 172 -47 0 10 10 15 31 15 82 0 296 56 412 107 46 21 57 30 57 49 0 13 -2 24 -4 24 -2 0 -37 -15 -77 -34 -41 -19 -85 -37 -99 -40 -14 -3 21 16 78 44 80 38 102 53 102 69 0 36 -55 26 -158 -28 -66 -34 -87 -42 -73 -27 12 12 21 25 21 29 0 4 9 16 20 27 14 14 20 33 20 65 0 45 0 45 -35 45 -28 0 -35 4 -35 20 0 14 -7 20 -22 20 -22 0 -23 -2 -20 -86 l4 -86 26 23 c30 27 -25 -38 -102 -120 -46 -50 -55 -55 -102 -59 -34 -3 -61 1 -82 12 -17 9 -43 17 -57 18 -14 1 -25 6 -25 9 0 4 -15 11 -32 14 -62 14 -83 38 -107 122 l-23 79 35 79 35 80 91 40 c124 55 122 69 -9 84 -114 12 -300 15 -300 4 0 -5 -33 -9 -73 -10 -39 -1 -116 -13 -170 -26 -89 -22 -96 -23 -78 -6 11 10 22 27 26 39 3 11 10 20 16 20 5 0 15 16 24 35 8 20 22 43 31 52 13 13 15 28 10 71 -4 30 -9 59 -12 63 -7 12 -99 10 -146 -3z m412 -491 c0 -2 -15 -16 -32 -33 l-33 -29 29 33 c28 30 36 37 36 29z"></path><path id="p2MYil2K0" d="M500 1896 c0 -24 -8 -61 -17 -82 -16 -36 -17 -37 -21 -14 -2 14 -8 30 -14 35 -19 19 3 -208 33 -341 33 -144 91 -294 115 -294 21 0 17 49 -11 120 -17 44 -22 66 -14 71 13 7 9 54 -14 204 -9 55 -17 155 -17 223 0 115 -1 122 -20 122 -17 0 -20 -7 -20 -44z"></path><path id="pmdwC6YXO" d="M2547 1576 c-22 -7 -43 -19 -48 -27 -4 -9 -28 -23 -51 -32 -44 -16 -201 -37 -283 -37 -25 0 -45 -4 -45 -10 0 -5 -7 -10 -15 -10 -10 0 -15 -10 -15 -33 l0 -32 88 -22 c68 -18 209 -43 235 -43 11 0 13 -51 2 -60 -6 -5 -17 -29 -24 -52 -7 -24 -19 -55 -27 -70 -8 -14 -14 -31 -14 -37 0 -6 -12 -35 -26 -64 -14 -28 -28 -75 -31 -103 l-5 -51 32 -7 c50 -9 88 -8 70 4 -12 8 -12 10 3 16 9 3 17 13 17 22 0 20 57 111 90 142 14 14 29 33 33 43 3 9 26 48 50 85 24 37 52 83 62 102 9 19 24 42 32 51 12 15 -2 17 -164 22 -166 5 -288 19 -305 36 -4 3 23 5 60 3 83 -4 303 29 357 54 35 17 40 24 43 57 2 21 -2 45 -9 53 -14 17 -59 17 -112 0z"></path><path id="pbG0FtK2f" d="M621 1128 c28 -53 60 -98 69 -98 6 0 10 16 10 35 0 24 -5 35 -15 35 -9 0 -15 9 -15 25 0 21 -5 25 -30 25 -29 0 -30 -1 -19 -22z"></path><path id="pTbMmwoSa" d="M932 756 c39 -36 165 -125 226 -160 8 -5 12 2 12 23 0 26 -4 31 -25 31 -16 0 -25 6 -25 15 0 8 -7 15 -15 15 -8 0 -15 5 -15 10 0 6 -16 10 -35 10 -31 0 -35 3 -35 25 0 21 -5 25 -30 25 -25 0 -30 4 -30 25 0 22 -4 25 -37 25 l-38 -1 47 -43z"></path></g></g><g id="l3FF2xtrQ9Fvage3wgbcMhF" fill="rgb(43,64,91)" style="transform: none;"><g><path id="pU8LRNgZo" d="M695 2425 c-16 -24 -36 -43 -44 -42 -19 3 -65 -91 -95 -195 -30 -105 -57 -258 -49 -287 7 -29 33 -27 33 3 0 19 4 23 19 19 13 -3 21 1 24 14 4 15 5 14 6 -4 0 -13 7 -23 15 -23 13 0 25 33 24 70 0 66 67 293 120 400 48 98 48 98 25 74 -24 -24 -48 -66 -45 -76 1 -5 -2 -8 -6 -8 -5 0 -14 -11 -20 -25 -6 -14 -16 -25 -22 -25 -6 0 7 34 29 75 43 82 34 102 -14 30z"></path><path id="p1CwbRkJKe" d="M1090 2388 c0 -5 -4 -7 -9 -3 -10 6 -61 -36 -61 -51 0 -4 -15 -24 -32 -43 l-33 -34 45 30 c66 45 198 70 175 33 -3 -5 3 -10 13 -10 14 0 21 9 26 32 3 17 4 33 2 36 -9 9 -126 18 -126 10z"></path><path id="p8jgWevgx" d="M521 2281 c-24 -44 -86 -328 -68 -311 3 3 15 50 26 105 12 55 29 128 40 163 19 63 20 77 2 43z"></path><path id="p0GakMrXF" d="M1530 2110 c0 -5 18 -10 40 -10 22 0 40 5 40 10 0 6 -18 10 -40 10 -22 0 -40 -4 -40 -10z"></path><path id="pbVQW0ueA" d="M1630 2111 c0 -6 7 -14 15 -17 17 -7 21 -25 4 -21 -6 1 -13 -3 -16 -9 -6 -18 103 -28 139 -13 22 9 26 14 16 21 -8 5 -3 6 15 2 20 -5 27 -2 27 9 0 20 -15 25 -114 33 -63 5 -86 4 -86 -5z m85 -31 c-11 -5 -27 -9 -35 -9 -9 0 -8 4 5 9 11 5 27 9 35 9 9 0 8 -4 -5 -9z"></path><path id="p1CvXvqsfZ" d="M1850 2076 c0 -13 28 -26 58 -26 6 0 12 9 12 20 0 16 -7 20 -35 20 -23 0 -35 -5 -35 -14z"></path><path id="pyVdj7oWA" d="M1535 2060 c-4 -6 10 -10 34 -10 23 0 41 5 41 10 0 6 -15 10 -34 10 -19 0 -38 -4 -41 -10z"></path><path id="p1B1Uv8JHO" d="M2051 1930 c23 -33 46 -60 50 -60 5 0 9 20 9 45 0 32 -4 45 -14 45 -8 0 -17 -8 -19 -17 -3 -10 -5 -3 -6 15 -1 29 -4 32 -32 32 l-30 0 42 -60z"></path><path id="pAomNaXfA" d="M448 1947 c-5 -10 -8 -37 -7 -60 0 -38 1 -40 10 -17 6 13 9 40 7 60 -2 27 -5 31 -10 17z"></path><path id="p2sdjhrQP" d="M2140 1884 c-6 -14 -17 -32 -25 -40 -18 -19 -20 -48 -2 -38 6 4 20 14 30 22 15 13 17 13 17 0 0 -8 -9 -27 -21 -42 l-20 -26 25 0 c14 0 26 4 26 8 0 5 11 22 25 38 18 21 25 40 25 69 -1 37 -2 39 -15 21 -13 -17 -15 -18 -15 -3 0 28 -39 21 -50 -9z"></path><path id="pTiKO43cB" d="M443 1800 c0 -25 2 -35 4 -22 2 12 2 32 0 45 -2 12 -4 2 -4 -23z"></path><path id="pKsWqh7Fy" d="M2332 1793 c-13 -3 -26 -11 -29 -20 -3 -8 -16 -19 -29 -24 -13 -4 -24 -15 -24 -24 0 -13 7 -12 41 6 34 17 41 18 36 5 -5 -13 -2 -13 18 -4 14 6 25 17 25 25 0 7 7 16 15 19 8 4 15 10 15 15 0 9 -26 10 -68 2z"></path><path id="pIgw7Ojpm" d="M2400 1746 c-25 -13 -65 -36 -90 -51 l-45 -26 50 6 c57 7 105 23 105 36 0 5 7 9 15 9 9 0 15 9 15 25 0 14 -1 25 -3 25 -1 0 -22 -11 -47 -24z"></path><path id="p15hkUoPL6" d="M2606 1585 c-9 -24 -7 -37 3 -31 11 7 28 -14 25 -31 -1 -7 -2 -18 -3 -24 0 -5 -5 -7 -11 -4 -5 3 -10 -1 -10 -9 0 -8 -8 -20 -17 -25 -10 -6 -15 -11 -11 -11 11 0 61 23 88 41 14 9 28 17 33 18 4 1 7 3 7 6 0 3 0 14 0 26 0 11 -4 18 -9 14 -5 -3 -11 5 -13 17 -2 18 -10 24 -39 26 -26 2 -38 -1 -43 -13z"></path><path id="pBDdvdh8p" d="M511 1443 c0 -6 -4 -20 -7 -30 -5 -14 -4 -15 5 -7 7 7 11 20 8 30 -3 11 -5 14 -6 7z"></path><path id="pjZRujP9L" d="M520 1401 c-13 -25 -13 -44 0 -36 6 3 7 -1 4 -9 -3 -9 -1 -16 5 -16 6 0 8 -7 4 -17 -5 -11 -3 -14 6 -8 10 6 11 2 6 -15 -5 -15 -4 -20 4 -16 7 5 9 1 5 -8 -3 -9 -1 -16 6 -16 6 0 8 -4 5 -10 -3 -5 -2 -10 3 -10 5 0 9 -6 9 -13 0 -20 45 -107 55 -107 5 0 7 -4 4 -8 -3 -5 5 -20 17 -33 12 -13 20 -25 18 -27 -13 -13 173 -226 259 -295 19 -16 51 -41 70 -57 19 -17 40 -30 45 -30 6 0 23 -11 39 -25 16 -14 35 -25 43 -25 7 0 13 -4 13 -9 0 -11 165 -87 253 -115 67 -22 175 -46 275 -61 37 -6 42 -4 42 12 0 16 -13 21 -82 32 -45 7 -125 26 -178 43 -100 32 -286 113 -308 135 -7 7 -27 13 -43 13 -23 0 -29 4 -29 21 0 12 -8 23 -20 26 -11 3 -20 9 -20 14 0 5 -8 9 -18 9 -9 0 -22 10 -27 23 -6 13 -21 23 -37 25 -19 2 -28 9 -28 21 0 19 -91 111 -109 111 -6 0 -11 9 -11 20 0 11 -9 25 -20 32 -11 7 -20 19 -20 26 0 7 -7 15 -15 18 -8 4 -15 10 -15 15 0 5 -16 34 -37 66 -43 68 -116 221 -134 281 -13 46 -23 52 -39 23z"></path><path id="pCFo8fvh4" d="M2849 1139 c-106 -158 -309 -340 -411 -369 l-32 -10 32 33 c18 18 32 36 32 40 0 4 -20 20 -45 36 -24 15 -42 31 -39 34 3 3 -10 9 -30 13 -30 5 -36 10 -31 25 5 15 1 19 -19 19 -23 0 -26 -4 -26 -33 0 -30 5 -36 50 -57 76 -35 77 -42 25 -88 -36 -31 -45 -46 -45 -72 0 -31 1 -32 38 -27 20 3 48 8 61 12 18 6 23 5 19 -6 -3 -8 -39 -32 -81 -54 -66 -34 -77 -44 -77 -66 0 -24 -7 -28 -67 -47 -95 -30 -192 -52 -230 -52 -26 0 -33 -4 -33 -20 0 -24 0 -24 117 -5 104 17 236 56 305 91 49 25 62 38 63 65 0 9 52 51 122 98 183 122 354 302 427 449 29 57 28 64 -4 30 -20 -22 -30 -21 -34 4 -1 7 -7 21 -12 32 -10 16 -19 7 -75 -75z"></path></g></g><g id="lLs2WsSmgDv55Djsu0au9I" fill="rgb(26,90,102)" style="transform: none;"><g><path id="p9xZndcji" d="M1413 2453 c30 -8 178 -92 266 -151 46 -31 125 -97 175 -147 51 -49 67 -67 37 -39 -31 28 -81 66 -111 86 -75 47 -190 109 -190 102 0 -4 -6 -1 -14 5 -8 7 -22 13 -32 15 -11 2 -55 16 -99 30 -99 32 -247 39 -273 12 -9 -9 -11 -16 -5 -16 14 0 11 -23 -6 -44 -11 -14 -11 -16 2 -16 24 0 29 -16 11 -34 -20 -20 -12 -32 31 -46 19 -6 35 -17 35 -25 0 -7 7 -15 15 -19 8 -3 15 -14 15 -26 0 -18 5 -20 83 -16 173 7 262 19 274 35 9 12 16 13 29 5 32 -19 28 -34 -10 -34 -20 0 -36 -4 -36 -10 0 -5 -8 -10 -17 -10 -42 0 1 -9 92 -20 55 -6 129 -18 165 -27 36 -9 76 -17 90 -18 18 -1 40 -20 75 -64 l50 -63 6 54 6 53 3 -75 c5 -89 7 -130 9 -149 1 -9 12 -5 37 14 19 15 37 25 40 23 2 -3 -9 -25 -26 -49 l-29 -44 24 -3 c21 -3 25 -9 25 -38 0 -19 2 -34 5 -34 2 0 55 25 117 55 106 53 168 101 168 132 0 7 7 13 15 13 18 0 20 17 4 22 -9 3 -9 9 -1 25 15 27 7 33 -44 33 -31 0 -47 -5 -57 -20 -12 -17 -95 -45 -106 -35 -2 3 4 16 13 29 16 26 22 96 8 96 -5 0 -30 -38 -56 -85 -27 -47 -50 -84 -52 -82 -2 2 3 19 12 37 18 35 33 85 41 137 4 25 1 34 -12 39 -13 5 -27 -4 -53 -35 -40 -49 -52 -43 -52 27 0 28 -4 42 -13 42 -7 0 -18 12 -23 28 -8 22 -9 14 -7 -38 l4 -65 -21 55 c-11 30 -25 69 -31 87 -5 17 -16 34 -24 37 -12 4 -15 -5 -15 -45 l0 -51 -91 86 c-51 47 -98 86 -105 86 -8 0 -14 5 -14 10 0 6 -8 14 -17 17 -9 4 -25 15 -35 25 -10 10 -25 18 -33 18 -8 0 -15 5 -15 10 0 6 -16 10 -35 10 -28 0 -35 4 -35 20 0 11 -7 20 -15 20 -8 0 -15 5 -15 11 0 29 -63 54 -72 28 -2 -7 -12 -7 -31 0 -16 6 -38 10 -50 10 -17 -1 -18 -2 -4 -6z"></path><path id="p3sIbtQCN" d="M650 2351 c-5 -11 -14 -31 -20 -45 -8 -22 -7 -26 9 -26 18 0 41 43 41 76 0 20 -18 17 -30 -5z"></path><path id="pGKSW5aWO" d="M585 2183 c-5 -21 -8 -24 -16 -12 -5 7 -9 11 -9 7 0 -3 -3 -13 -6 -22 -5 -12 0 -16 20 -16 20 0 26 -5 27 -22 0 -13 6 -1 14 27 7 27 11 53 8 57 -10 17 -31 6 -38 -19z"></path><path id="pqbEA9dHB" d="M650 2198 c0 -2 -7 -25 -15 -51 -10 -33 -11 -47 -3 -45 6 2 17 24 24 49 16 53 16 49 4 49 -5 0 -10 -1 -10 -2z"></path><path id="p1E67JbYPY" d="M1590 2073 c-60 -8 -70 -13 -70 -37 0 -22 6 -25 61 -33 57 -8 65 -6 134 27 41 19 73 36 71 37 -4 4 -170 9 -196 6z"></path><path id="p11LFcuwqu" d="M2470 1784 c-41 -25 -110 -63 -152 -85 -80 -40 -97 -59 -54 -59 13 0 26 -7 30 -15 3 -8 12 -15 21 -15 9 0 15 -9 15 -25 0 -17 5 -25 18 -25 20 0 62 -35 62 -50 0 -6 24 -10 54 -10 42 0 57 4 67 20 8 10 28 21 44 24 17 2 32 5 35 6 3 1 9 2 14 1 5 -1 13 4 17 11 6 9 9 8 14 -5 11 -28 37 7 37 51 2 92 -2 122 -17 122 -8 0 -15 7 -15 15 0 8 -5 15 -11 15 -5 0 -7 5 -4 10 6 9 -8 14 -27 11 -5 0 -8 4 -8 9 0 6 -7 10 -15 10 -8 0 -15 7 -15 15 0 25 -32 17 -110 -31z"></path></g></g><g id="l41MK8kEkpprtnMpeHECdYc" fill="rgb(22,121,78)" style="transform: none;"><g><path id="p4GrNOvMy" d="M2158 3153 c41 -8 16 -44 -27 -38 -75 11 -152 14 -146 5 4 -6 -14 -10 -44 -10 -38 0 -51 -4 -51 -15 0 -9 14 -16 38 -20 66 -11 68 -13 15 -14 -66 -1 -69 -18 -5 -26 76 -10 157 -36 143 -44 -10 -6 -9 -9 2 -14 13 -5 13 -12 1 -58 -8 -29 -18 -55 -22 -58 -5 -3 -14 -16 -21 -28 -6 -13 -17 -23 -24 -23 -15 0 -107 -101 -107 -117 0 -7 -3 -13 -7 -13 -5 0 -14 -4 -22 -9 -11 -7 -6 -22 23 -73 20 -35 58 -120 85 -188 28 -72 56 -127 67 -133 11 -6 25 -17 32 -24 7 -7 20 -13 28 -13 8 0 14 -4 14 -10 0 -5 8 -10 18 -10 9 0 26 -11 36 -25 10 -14 24 -25 31 -25 12 0 33 69 65 215 22 101 46 168 76 216 51 81 61 57 46 -105 -6 -67 -25 -175 -43 -241 -40 -156 -40 -159 -7 -163 23 -3 26 0 21 19 -5 16 -3 20 6 14 10 -6 11 -3 2 14 -9 15 -9 21 -1 21 7 0 10 14 9 32 -2 21 1 32 8 31 7 -2 10 3 7 11 -5 14 20 46 38 46 5 0 8 7 4 15 -3 8 4 24 16 34 14 14 19 28 16 45 -3 14 0 27 7 30 9 3 11 20 6 58 -3 29 -5 80 -5 114 -1 73 27 121 88 154 43 23 35 27 131 -54 l60 -51 -41 50 c-22 28 -44 57 -49 65 -10 17 -7 15 68 -45 26 -21 49 -36 52 -34 2 3 -12 24 -31 48 -18 24 -34 52 -34 62 0 10 -13 33 -29 51 -23 26 -27 38 -19 51 8 14 13 16 24 6 8 -6 14 -8 14 -3 -1 12 -95 79 -112 79 -17 0 -24 -81 -8 -100 8 -10 -3 -14 -57 -19 -38 -3 -85 -8 -107 -12 -82 -14 -150 37 -187 140 -8 21 -24 43 -36 49 -13 6 -23 18 -23 28 0 14 7 16 41 12 50 -7 89 12 89 42 0 19 -11 25 -72 44 -40 11 -82 20 -93 20 -17 -2 -17 -2 3 -6z"></path><path id="pD9uV6qFy" d="M1776 2448 c-43 -22 -46 -34 -7 -43 16 -3 39 -17 51 -31 15 -15 35 -24 53 -24 l29 0 -23 38 c-13 20 -33 46 -45 58 -21 20 -22 20 -58 2z"></path></g></g><g id="l3pc6x4xS6XUm7FKCiGUVEK" fill="rgb(67,91,82)" style="transform: none;"><g><path id="pkLT3qFVm" d="M1595 3180 c-119 -21 -195 -41 -178 -47 7 -3 27 0 45 6 53 17 197 41 247 42 25 0 55 4 66 9 36 15 -73 10 -180 -10z"></path><path id="p12HWR1H9D" d="M1865 3191 c11 -5 63 -11 115 -15 81 -5 158 -20 269 -52 16 -5 22 -4 18 3 -8 14 -158 49 -260 63 -95 12 -172 13 -142 1z"></path><path id="p1Dwqobfuz" d="M1710 3133 c-14 -2 -56 -8 -94 -14 -38 -6 -63 -15 -57 -19 7 -4 -18 -15 -56 -25 -214 -57 -433 -192 -603 -372 -104 -110 -155 -179 -139 -189 6 -4 16 1 21 10 23 40 135 170 191 222 67 60 212 161 287 199 130 66 324 115 518 131 56 4 82 11 82 19 0 7 -11 16 -25 19 -14 4 -25 11 -25 16 0 10 -49 11 -100 3z"></path><path id="pwPam9ock" d="M1318 3107 c-16 -6 -28 -14 -28 -18 0 -10 58 10 66 22 6 11 -3 10 -38 -4z"></path><path id="pcgrxpJ8A" d="M2290 3095 c0 -22 4 -25 35 -25 42 0 47 21 10 38 -37 17 -45 15 -45 -13z"></path><path id="plK5QZoY6" d="M1624 3045 c-202 -36 -410 -133 -559 -260 -65 -55 -134 -122 -165 -160 -14 -16 18 11 71 61 224 211 484 327 783 350 47 4 86 11 86 15 0 13 -134 9 -216 -6z"></path><path id="p1EGaWh5P3" d="M2590 2945 c0 -35 15 -46 36 -25 14 14 74 -30 182 -135 48 -47 89 -85 92 -85 13 0 -165 170 -232 221 l-78 60 0 -36z"></path><path id="pjsEdL9VO" d="M2779 2663 c99 -131 185 -275 242 -406 18 -44 35 -74 37 -67 5 13 -38 169 -50 187 -5 6 -4 13 3 15 15 5 -51 125 -119 217 -38 51 -50 61 -68 57 -13 -4 -27 0 -34 9 -22 27 -32 16 -11 -12z"></path><path id="pNpsJK5AH" d="M2846 2513 c15 -27 51 -94 81 -151 57 -111 72 -115 23 -8 -30 68 -115 206 -126 206 -3 0 7 -21 22 -47z"></path><path id="plrEJeYdm" d="M1523 2462 c-13 -2 -23 -8 -23 -14 0 -5 -7 -8 -15 -4 -8 3 -15 0 -15 -7 0 -7 46 -37 102 -67 127 -69 118 -66 118 -36 0 21 -5 26 -25 26 -14 0 -25 5 -25 11 0 16 -26 39 -44 39 -9 0 -16 7 -16 15 0 8 -5 15 -11 15 -5 0 -8 4 -5 9 7 11 -13 18 -41 13z"></path><path id="p1HcE9bxYz" d="M1970 2189 c0 -63 10 -91 29 -87 23 5 17 82 -9 110 l-20 22 0 -45z"></path><path id="pqNQS8U7I" d="M2186 2074 c-8 -22 -7 -74 2 -74 16 1 41 48 35 69 -6 25 -28 28 -37 5z"></path><path id="p4lLJyjUC" d="M2402 1968 c-7 -7 -12 -25 -12 -40 0 -25 2 -27 19 -16 15 9 23 9 33 0 11 -9 18 -7 30 8 19 21 14 30 -19 30 -14 0 -23 6 -23 15 0 18 -12 19 -28 3z"></path></g></g><g id="l5NSfCgsKEtPVvTm1GuAbOf" fill="rgb(20,88,143)" style="transform: none;"><g><path id="pTQLHiJTN" d="M1185 2210 c-3 -5 -13 -10 -21 -10 -15 0 -64 -46 -64 -60 0 -10 -70 -80 -80 -80 -5 0 -12 -4 -15 -10 -4 -6 1 -7 12 -4 16 5 16 4 -2 -13 -52 -48 -48 -51 27 -26 73 24 239 66 311 78 46 7 52 35 7 35 -16 0 -30 5 -30 10 0 6 5 10 10 10 25 0 6 28 -30 44 -22 10 -38 22 -35 27 4 5 -14 9 -39 9 -25 0 -48 -4 -51 -10z"></path><path id="psTod7Z2m" d="M1400 2110 c0 -21 23 -26 68 -14 41 11 26 34 -23 34 -38 0 -45 -3 -45 -20z"></path><path id="p1BVTjJEmj" d="M1460 2050 c-150 -32 -320 -100 -432 -172 -92 -60 -168 -192 -168 -293 0 -49 -24 -113 -45 -122 -8 -3 -15 -12 -15 -19 0 -13 -38 -34 -61 -34 -5 0 -19 16 -31 36 -12 21 -24 31 -28 25 -9 -15 -35 73 -55 187 l-17 92 -34 0 c-32 0 -34 -2 -34 -35 0 -26 -4 -35 -16 -35 -13 0 -15 -7 -11 -32 3 -18 9 -55 12 -83 3 -27 11 -70 17 -93 9 -36 9 -46 -3 -53 -10 -6 -16 -2 -21 14 -5 13 -5 6 -2 -16 8 -59 70 -213 120 -302 119 -207 296 -382 517 -509 l47 -28 0 30 c0 24 -6 32 -32 43 -18 7 -35 16 -38 19 -13 17 -100 70 -114 70 -9 0 -16 7 -16 15 0 9 -9 15 -25 15 -18 0 -25 5 -25 18 0 28 -32 52 -68 52 -29 0 -32 3 -32 33 0 39 -15 57 -47 57 -19 0 -23 5 -23 30 0 20 -5 30 -15 30 -8 0 -15 9 -15 20 0 11 -4 20 -10 20 -5 0 -10 6 -10 14 0 8 -3 16 -7 18 -20 8 -50 85 -46 118 3 23 -7 67 -31 133 -26 71 -32 97 -22 97 7 0 19 -14 26 -31 l13 -31 179 7 c136 6 181 5 193 -5 11 -9 15 -32 15 -81 l0 -69 33 0 c24 0 41 9 65 34 18 19 32 38 32 42 0 4 6 15 14 23 7 9 21 50 30 92 19 86 31 110 101 198 72 91 221 241 191 192 -15 -23 -45 -208 -52 -309 l-7 -112 36 0 c34 0 36 2 45 48 6 26 16 79 22 117 18 110 21 118 29 109 5 -5 14 -27 21 -49 15 -47 62 -143 99 -202 22 -36 31 -43 59 -43 30 0 32 2 32 34 0 18 -15 62 -34 98 l-34 65 97 -48 c103 -51 198 -86 326 -119 49 -13 93 -32 113 -48 l33 -27 -51 -110 c-40 -85 -50 -118 -48 -150 l3 -40 70 -3 70 -3 18 48 c10 26 24 62 31 78 7 17 19 48 26 70 7 22 19 48 27 57 8 9 14 31 13 50 -3 53 -1 56 28 61 20 3 17 4 -13 6 -110 4 -302 44 -317 66 -15 20 -7 25 37 25 71 0 237 20 268 32 21 8 27 17 27 39 0 28 -8 34 -38 30 -8 -1 -24 9 -37 23 -30 32 -39 32 -59 1 -9 -14 -23 -25 -31 -25 -9 0 -23 -4 -33 -9 -50 -26 -218 -35 -299 -17 -35 8 -45 26 -15 26 34 0 162 34 162 43 0 21 34 34 77 29 41 -4 43 -3 43 21 l0 26 -82 -29 c-99 -34 -268 -70 -333 -70 -26 0 -44 -4 -40 -9 8 -13 -52 17 -104 52 -35 24 -45 27 -53 16 -8 -11 -9 -10 -5 3 3 9 1 18 -5 20 -5 2 -20 35 -32 72 l-23 69 -23 -63 c-40 -108 -34 -47 8 72 21 62 43 122 48 133 8 19 7 20 -16 3 -14 -10 -38 -25 -55 -34 -16 -9 -92 -76 -167 -148 -119 -113 -140 -138 -154 -181 -16 -47 -41 -84 -113 -165 -37 -42 -39 -35 -7 29 85 166 276 380 435 486 50 33 91 63 91 68 0 4 -16 7 -35 7 -19 0 -35 -4 -35 -10 0 -5 -7 -10 -15 -10 -8 0 -15 -4 -15 -10 0 -5 -7 -10 -15 -10 -8 0 -15 -4 -15 -10 0 -5 -7 -10 -15 -10 -8 0 -15 -7 -15 -15 0 -8 -9 -15 -20 -15 -13 0 -20 -7 -20 -20 0 -14 -7 -20 -22 -20 -22 0 -148 -115 -148 -135 0 -16 -38 -36 -45 -24 -9 14 5 91 20 109 7 8 15 27 19 42 4 20 24 38 74 67 68 41 169 81 204 81 13 0 18 8 18 30 0 17 -1 30 -2 29 -2 0 -41 -9 -88 -19z"></path><path id="pgo9M5QGm" d="M2149 1725 c-3 -2 -20 -5 -38 -7 -24 -2 -41 -13 -68 -46 -27 -33 -32 -43 -17 -39 10 4 37 7 59 9 22 1 64 15 93 31 57 32 64 38 30 29 -21 -5 -22 -4 -9 11 12 15 10 17 -16 17 -16 0 -32 -2 -34 -5z"></path></g></g><g id="l5aHQQx4Piu9ktazxQNusZa" fill="rgb(55,86,119)" style="transform: none;"><g><path id="p1FpXnfDds" d="M657 2340 c-20 -20 -66 -125 -67 -152 0 -21 -17 -32 -23 -16 -5 16 -25 -54 -43 -152 -16 -92 -19 -384 -3 -375 6 4 9 0 7 -10 -2 -10 3 -20 10 -22 6 -3 12 2 12 11 0 9 6 16 14 16 7 0 17 10 20 23 l7 22 9 -22 c5 -13 11 -23 13 -23 1 0 3 73 3 163 1 111 7 190 18 251 18 92 57 219 83 269 8 16 12 31 9 34 -2 3 -12 -10 -21 -27 -16 -31 -68 -162 -66 -167 1 -2 1 -4 0 -5 -17 -56 -49 -197 -49 -217 0 -13 -3 -22 -6 -18 -17 17 37 271 81 379 25 60 23 70 -8 38z"></path><path id="phvIgAk8H" d="M1173 2252 c-7 -4 -19 -24 -27 -44 -9 -20 -21 -39 -28 -42 -7 -3 7 -5 32 -4 25 1 52 8 62 15 11 10 18 11 23 3 5 -8 11 -8 21 1 7 6 22 8 31 5 17 -6 17 -5 1 7 -10 8 -15 17 -12 20 6 5 -31 29 -51 33 -5 1 -17 5 -25 8 -8 3 -20 2 -27 -2z"></path><path id="p12jy64Evs" d="M1510 2062 c-33 -5 -34 -5 -10 -12 l25 -8 -25 -1 c-14 -1 -32 -6 -40 -11 -11 -7 4 -10 50 -10 36 0 72 5 80 10 13 8 12 10 -5 11 -11 1 -23 1 -27 0 -13 -2 -9 17 5 22 14 6 -3 6 -53 -1z"></path><path id="pTgNnofuZ" d="M1610 2005 c0 -31 11 -32 47 0 l28 24 -37 1 c-34 0 -38 -3 -38 -25z"></path><path id="p1BB66Y8wx" d="M2128 1768 l-27 -33 25 -3 c33 -4 36 -1 32 38 l-3 32 -27 -34z"></path><path id="paRrbHmYZ" d="M2165 1722 c-16 -9 -36 -23 -45 -31 -13 -13 -13 -14 4 -8 10 4 25 2 33 -4 7 -7 16 -9 20 -5 3 3 1 6 -5 6 -7 0 2 13 20 30 37 33 21 40 -27 12z"></path><path id="p9GxMw1pK" d="M2166 1636 c-23 -11 -25 -14 -11 -19 9 -4 30 -7 46 -7 22 0 29 5 29 20 0 23 -20 25 -64 6z"></path><path id="pywg1RBSO" d="M1750 1549 c0 -15 7 -19 37 -19 36 0 36 0 17 18 -26 25 -54 26 -54 1z"></path><path id="p8R8PYvpR" d="M2450 1553 c-14 -7 -19 -13 -12 -13 7 0 10 -4 7 -10 -3 -5 -1 -10 5 -10 6 0 4 -10 -6 -25 -20 -30 -18 -30 39 -6 45 19 77 59 38 46 -12 -4 -24 1 -33 13 -11 16 -16 16 -38 5z"></path><path id="p5BJpmQdT" d="M1965 1496 c40 -18 115 -29 115 -17 0 11 -79 31 -117 30 l-28 -1 30 -12z"></path><path id="pYeHIc6ml" d="M1940 1459 c0 -17 56 -41 169 -74 60 -17 121 -20 121 -6 0 10 -27 24 -47 26 -7 0 -18 8 -25 16 -14 17 -153 53 -169 43 -5 -3 -9 -1 -9 3 0 5 -9 9 -20 9 -12 0 -20 -7 -20 -17z"></path><path id="p1CT3pMcwg" d="M640 1178 c0 -10 -8 -18 -17 -19 -11 0 -13 -3 -5 -6 6 -2 10 -8 8 -11 -2 -4 5 -16 15 -26 19 -19 19 -19 19 15 0 19 -5 41 -10 49 -8 13 -10 12 -10 -2z"></path><path id="p8q9DSpUu" d="M677 1050 c3 -11 9 -20 14 -20 5 0 9 -5 9 -11 0 -6 6 -16 13 -24 6 -7 21 -26 32 -41 11 -16 31 -39 45 -52 l25 -24 3 22 c5 32 -5 50 -28 50 -15 0 -20 7 -20 25 0 16 -6 25 -15 25 -8 0 -15 9 -15 20 0 11 -4 20 -10 20 -5 0 -10 7 -10 15 0 9 -9 15 -24 15 -19 0 -23 -4 -19 -20z"></path><path id="pLjNTQcXi" d="M2181 1039 c-20 -57 -16 -81 28 -181 14 -33 21 -38 49 -38 17 0 32 3 32 8 0 4 7 15 14 25 13 17 15 17 52 0 22 -10 42 -22 46 -28 15 -20 7 -35 -17 -35 -14 0 -46 -15 -70 -32 -36 -27 -44 -39 -45 -65 0 -18 5 -33 10 -33 6 0 10 -10 10 -23 0 -18 -11 -28 -49 -46 -36 -16 -52 -30 -60 -51 -5 -17 -17 -30 -25 -30 -9 0 -16 -9 -16 -20 0 -11 5 -20 12 -20 31 0 148 44 150 56 0 8 1 20 2 27 1 6 36 31 79 54 99 54 247 152 247 164 0 12 -17 12 -22 0 -4 -11 -117 -71 -133 -71 -7 0 -15 11 -17 25 -3 14 -1 25 5 25 6 0 8 2 5 6 -3 3 -34 -6 -69 -20 -36 -14 -55 -19 -44 -10 11 8 41 35 68 61 l48 46 -42 27 c-23 16 -58 36 -79 45 -30 14 -37 21 -30 34 14 27 50 110 50 116 0 3 -13 -4 -28 -15 -39 -29 -107 -23 -106 9 1 36 -42 28 -55 -10z"></path><path id="pr95Cxotd" d="M964 735 c37 -31 46 -31 46 0 0 22 -4 25 -37 25 l-38 0 29 -25z"></path><path id="pIbk5qHKp" d="M1086 651 c11 -10 30 -22 42 -25 12 -4 22 -12 22 -17 0 -6 5 -7 10 -4 6 3 10 2 10 -3 0 -9 109 -62 183 -88 36 -13 37 -12 37 9 0 17 -9 26 -33 35 -18 7 -41 12 -49 12 -9 0 -18 4 -20 9 -5 13 -105 61 -128 61 -11 0 -20 7 -20 15 0 11 -11 15 -37 15 -36 0 -37 0 -17 -19z"></path><path id="pfSLnclVi" d="M1440 496 c0 -8 19 -18 44 -25 60 -15 66 -14 66 8 0 13 -10 20 -31 25 -51 10 -79 7 -79 -8z"></path><path id="pmoLSPs2B" d="M2010 460 c0 -21 10 -24 48 -14 36 10 27 34 -13 34 -28 0 -35 -4 -35 -20z"></path></g></g><g id="l6VAdS7HOSNMPyK4ChaNbeG" fill="rgb(44,128,113)" style="transform: none;"><g><path id="pgnN5sqYt" d="M2240 3132 c0 -5 12 -13 27 -17 24 -6 26 -8 10 -16 -20 -11 -14 -29 10 -29 15 0 213 -89 223 -100 3 -3 21 -17 40 -30 45 -31 47 -34 54 -89 5 -37 12 -50 34 -63 16 -10 65 -53 110 -98 45 -44 82 -76 82 -72 0 9 -115 153 -136 168 -7 6 -14 18 -14 27 0 9 -14 32 -31 52 -19 21 -29 41 -25 51 3 8 11 12 17 8 7 -4 10 -2 8 5 -3 7 -8 12 -13 11 -5 -1 -13 5 -18 14 -15 26 -248 149 -283 149 -8 0 -15 4 -15 8 0 4 -11 10 -24 13 -13 3 -31 9 -40 12 -9 3 -16 2 -16 -4z"></path><path id="pXr8bYu19" d="M1688 3090 c-59 -10 -113 -21 -120 -24 -7 -3 1 -4 17 -1 75 14 306 17 390 5 50 -6 120 -14 158 -17 64 -5 67 -5 67 17 0 20 -4 22 -32 16 -18 -3 -71 1 -118 9 -108 19 -227 17 -362 -5z"></path><path id="p1G9Aoza5n" d="M1760 3051 c-42 -5 -18 -8 100 -13 85 -4 173 -12 195 -17 38 -10 55 -8 42 5 -8 9 -196 34 -242 32 -22 -1 -65 -4 -95 -7z"></path><path id="p1HAUNby16" d="M1653 3033 c9 -2 25 -2 35 0 9 3 1 5 -18 5 -19 0 -27 -2 -17 -5z"></path><path id="pHPb3Vxow" d="M2591 2793 c0 -10 28 -40 62 -67 l62 -50 -45 50 c-78 85 -80 87 -79 67z"></path><path id="peixdDPtF" d="M1710 2430 c-109 -21 -150 -32 -150 -39 0 -4 26 -22 57 -41 93 -57 192 -136 296 -239 54 -53 96 -89 93 -81 -3 8 -2 31 3 50 24 111 -120 343 -221 355 -18 2 -53 0 -78 -5z"></path><path id="pNV8EAlwm" d="M2026 2313 c3 -15 10 -45 16 -66 17 -71 37 -195 44 -284 6 -70 9 -84 18 -69 6 10 28 37 49 60 56 61 69 91 74 175 5 66 3 79 -15 99 -10 12 -27 22 -36 22 -9 0 -16 5 -16 10 0 6 -6 10 -14 10 -8 0 -21 6 -28 14 -8 7 -33 23 -56 35 l-43 22 7 -28z"></path><path id="pMqi176My" d="M1596 2195 c-4 -16 -11 -22 -21 -19 -18 7 -19 -13 -3 -48 11 -23 19 -26 98 -32 47 -3 103 -9 125 -12 l40 -6 -30 25 c-16 14 -41 32 -55 39 -14 7 -37 26 -53 42 -20 20 -34 27 -52 24 -13 -3 -22 -1 -19 3 3 5 -1 9 -9 9 -8 0 -18 -11 -21 -25z"></path><path id="pVEdR0m7U" d="M2316 2111 c-32 -78 -127 -264 -153 -298 l-24 -33 50 0 c45 0 76 13 51 22 -6 2 3 15 20 30 16 14 30 21 30 15 0 -7 6 -5 13 4 7 9 27 19 45 22 40 8 88 61 83 91 -4 27 -59 144 -81 172 -16 21 -16 21 -34 -25z"></path></g></g><g id="l1dOd5mKHnp3At6ZxCLpheW" fill="rgb(44,111,155)" style="transform: none;"><g><path id="pE6Y9mVNo" d="M1293 2140 c-49 -56 -35 -65 80 -51 53 6 140 12 194 12 54 1 90 3 81 6 -21 5 -24 19 -5 26 6 2 -6 13 -29 25 -41 21 -127 27 -149 11 -6 -4 -20 -6 -30 -5 -11 2 -26 -1 -32 -7 -9 -6 -13 -6 -13 3 0 8 -3 11 -6 8 -3 -4 -18 -3 -32 1 -23 6 -32 2 -59 -29z"></path><path id="p19BTtrac0" d="M1473 2035 c-71 -20 -115 -39 -185 -81 -44 -27 -60 -43 -65 -65 -3 -16 -12 -34 -19 -40 -8 -6 -14 -22 -14 -35 0 -12 -4 -25 -8 -28 -11 -6 -8 -88 3 -106 6 -10 4 -12 -8 -7 -11 4 -17 1 -17 -8 0 -8 4 -15 9 -15 13 0 3 -60 -15 -88 -29 -45 -7 -32 26 16 19 26 55 71 82 100 29 33 48 63 48 78 0 13 9 33 20 44 11 11 20 23 20 28 0 4 9 18 20 32 l20 25 0 -34 0 -34 33 27 c17 14 84 61 146 104 63 42 118 79 122 82 4 3 -16 6 -44 6 -29 1 -68 4 -87 7 -19 3 -58 0 -87 -8z"></path><path id="pkmJx2t40" d="M546 1933 c-3 -16 -7 -79 -8 -140 -2 -62 -6 -113 -10 -113 -23 0 23 -216 80 -375 37 -104 41 -132 20 -146 -10 -7 80 -159 127 -214 l34 -40 1 38 c0 26 -4 37 -15 37 -8 0 -15 9 -15 20 0 13 -7 20 -20 20 -16 0 -20 7 -20 30 0 20 -5 30 -15 30 -16 0 -20 24 -16 91 1 20 -5 53 -13 74 -21 50 -20 55 9 55 17 0 25 6 25 18 0 9 3 27 6 40 5 15 2 22 -8 22 -8 0 -20 11 -26 24 -20 44 -61 209 -71 281 -6 51 -9 59 -10 30 -1 -45 14 -150 30 -212 17 -64 4 -76 -14 -13 -30 101 -47 232 -47 351 0 111 -11 154 -24 92z"></path><path id="p7tGHre1O" d="M1579 1897 c-156 -116 -340 -323 -371 -420 -22 -68 -22 -87 0 -87 13 0 21 13 29 44 7 23 27 61 45 83 18 21 47 57 63 78 35 46 122 132 148 146 13 7 17 6 17 -6 0 -28 28 -16 35 15 4 17 18 58 31 92 13 34 23 63 21 64 -1 1 -9 -3 -18 -9z"></path><path id="p1G5DPC9CE" d="M2190 1820 c0 -5 -6 -10 -12 -10 -7 0 -36 -26 -64 -58 -67 -76 -71 -84 -42 -77 12 3 40 7 62 9 42 5 86 39 86 68 0 10 7 18 15 18 19 0 15 18 -7 42 -20 20 -38 24 -38 8z"></path><path id="pzS57kUa1" d="M1584 1715 c-4 -15 -15 -36 -25 -46 -11 -11 -19 -32 -19 -48 0 -34 -38 -222 -46 -230 -9 -9 7 157 22 232 18 86 18 87 -4 87 -15 0 -21 -13 -30 -64 -15 -78 -15 -106 -2 -106 6 0 10 -4 10 -10 0 -5 -7 -10 -15 -10 -11 0 -14 -19 -14 -95 l0 -95 33 0 c36 0 38 4 72 180 18 94 30 116 40 76 4 -19 13 -26 30 -26 l24 0 -32 88 c-17 48 -32 89 -34 91 -2 2 -6 -9 -10 -24z"></path><path id="p1BoFdyUwV" d="M2235 1658 c-106 -39 -244 -76 -316 -84 l-59 -7 36 -32 c20 -18 54 -38 77 -44 77 -19 107 -23 107 -13 0 7 21 8 56 5 48 -5 134 6 184 25 8 3 21 6 29 8 21 4 39 26 47 58 6 26 5 29 -14 24 -12 -3 -21 -3 -20 1 3 24 -5 39 -21 44 -14 3 -18 11 -14 26 7 26 6 26 -92 -11z"></path><path id="pMy25PACg" d="M1690 1563 c3 -27 21 -74 39 -106 18 -32 30 -61 28 -64 -6 -5 -44 59 -73 119 -9 20 -21 35 -26 32 -12 -8 -10 -74 3 -74 18 0 38 -32 39 -62 0 -16 5 -28 10 -28 6 0 10 -7 10 -15 0 -8 4 -15 9 -15 5 0 11 -9 14 -20 4 -15 14 -20 41 -20 35 0 36 1 36 38 0 25 -12 62 -35 104 l-34 65 44 -5 c25 -2 45 0 45 5 0 7 -141 93 -153 93 -2 0 -1 -21 3 -47z"></path><path id="pCmgxuHyo" d="M1870 1486 c0 -20 10 -28 66 -50 36 -15 113 -40 171 -56 116 -33 125 -38 148 -84 16 -31 12 -104 -5 -116 -32 -21 -66 -150 -40 -150 10 0 141 263 140 279 -1 3 -21 21 -45 38 -30 23 -78 42 -153 62 -101 28 -148 44 -244 85 -38 16 -38 16 -38 -8z"></path><path id="p15QeFotB2" d="M788 1383 c-10 -2 -18 -11 -18 -19 0 -10 13 -14 50 -14 43 0 50 3 50 20 0 16 -6 20 -32 19 -18 -1 -41 -3 -50 -6z"></path><path id="p1DOj87ZPe" d="M1040 1350 c0 -33 3 -40 20 -40 15 0 20 7 20 28 0 27 -15 52 -32 52 -4 0 -8 -18 -8 -40z"></path><path id="p1UzQuLXE" d="M1168 1335 c-10 -13 -18 -28 -18 -34 0 -5 -6 -14 -12 -18 -7 -4 -19 -16 -27 -25 -12 -16 -11 -18 18 -18 24 0 31 4 31 19 0 10 9 21 20 24 15 4 20 14 20 41 0 42 -8 45 -32 11z"></path><path id="p1Ga3Nwd79" d="M815 877 c16 -24 113 -113 178 -161 l37 -28 0 31 c0 24 -4 31 -19 31 -10 0 -21 9 -24 20 -4 15 -14 20 -41 20 -33 0 -36 3 -36 28 0 35 -49 82 -84 82 -25 0 -26 -1 -11 -23z"></path><path id="pS8R6AZkF" d="M1080 662 c0 -8 141 -92 154 -92 3 0 6 11 6 24 0 26 -16 36 -61 36 -22 0 -29 5 -29 20 0 16 -7 20 -35 20 -19 0 -35 -4 -35 -8z"></path></g></g><g id="ltxe5w2aNoKXaslsLQnPyv" fill="rgb(88,106,116)" style="transform: none;"><g><path id="p1BYQIrUkT" d="M1587 3179 c-398 -70 -771 -331 -963 -676 -44 -79 -111 -229 -119 -270 -3 -15 9 11 28 58 168 417 483 713 892 838 139 42 207 53 385 61 l155 7 -135 1 c-92 0 -170 -6 -243 -19z"></path><path id="pVi0SazGt" d="M2286 3105 c-11 -8 -18 -16 -15 -18 2 -2 44 -21 93 -42 49 -22 127 -63 172 -91 50 -31 84 -47 87 -40 7 19 -11 54 -34 66 -17 10 -20 9 -14 -2 5 -7 -4 0 -18 15 -15 15 -32 25 -37 22 -6 -3 -10 -1 -10 5 0 6 -4 8 -10 5 -5 -3 -10 -1 -10 6 0 7 -3 10 -6 7 -3 -4 -15 3 -26 14 -11 11 -26 17 -34 14 -8 -3 -14 -1 -14 5 0 6 -4 7 -10 4 -5 -3 -10 -1 -10 5 0 7 -7 9 -16 6 -10 -4 -13 -2 -8 6 5 8 2 9 -9 5 -10 -3 -17 -2 -17 2 0 5 -10 7 -22 4 -19 -4 -20 -3 -8 6 8 6 11 11 5 11 -5 -1 -19 -7 -29 -15z"></path><path id="pOYBz4Zkh" d="M1025 2810 c-233 -187 -395 -438 -455 -705 -17 -80 -28 -201 -21 -237 5 -26 10 -8 24 87 51 342 178 587 424 814 96 88 106 104 28 41z"></path><path id="p8WrVRKe3" d="M796 2487 c-49 -74 -106 -185 -106 -205 0 -4 25 40 55 97 30 57 65 118 78 135 30 39 40 56 33 56 -3 0 -30 -38 -60 -83z"></path><path id="pvVnRqAnW" d="M667 2233 c-8 -21 -17 -54 -21 -73 -3 -19 5 -4 18 35 26 75 28 101 3 38z"></path><path id="piWtjeQc" d="M480 2150 c-7 -28 -10 -53 -8 -55 3 -3 10 18 16 47 7 28 11 53 8 55 -2 2 -9 -19 -16 -47z"></path><path id="pc9Rudeof" d="M3341 2155 c0 -5 3 -15 7 -22 5 -9 12 -6 21 10 13 20 13 21 -1 9 -13 -10 -17 -10 -21 0 -3 7 -6 9 -6 3z"></path><path id="pIQlIAGdQ" d="M443 1895 c0 -27 2 -38 4 -22 2 15 2 37 0 50 -2 12 -4 0 -4 -28z"></path><path id="pCnkkbWeq" d="M272 1813 c15 -2 29 -12 31 -21 3 -12 5 -10 6 6 1 19 -4 22 -31 21 -30 -2 -30 -2 -6 -6z"></path><path id="p1FUOzuYfU" d="M254 1685 c11 -8 24 -15 29 -15 4 0 5 -4 2 -10 -3 -5 3 -10 14 -10 29 0 26 5 -15 29 -40 24 -58 27 -30 6z"></path><path id="p1Gw06pNfy" d="M310 1616 c0 -8 -6 -17 -12 -19 -8 -3 -6 -6 5 -6 11 -1 17 6 17 19 0 11 -2 20 -5 20 -3 0 -5 -6 -5 -14z"></path><path id="pOGb7w6BP" d="M338 1383 c23 -5 31 -37 12 -46 -6 -3 -5 -4 2 -3 7 1 14 15 16 29 3 24 0 27 -25 26 -23 -2 -24 -2 -5 -6z"></path><path id="p7Y6HQIqT" d="M345 1310 c-16 -7 -14 -8 12 -7 18 1 33 5 33 10 0 9 -19 8 -45 -3z"></path><path id="pfu1cc8sz" d="M410 1170 c19 -13 30 -13 30 0 0 6 -10 10 -22 10 -19 0 -20 -2 -8 -10z"></path><path id="peI6HVL9w" d="M487 1016 c-14 -11 -15 -15 -3 -19 8 -3 16 2 19 14 3 10 4 19 4 19 -1 0 -10 -7 -20 -14z"></path><path id="pWXSujhzJ" d="M524 938 c-7 -11 18 -10 36 2 11 7 10 9 -8 7 -13 -1 -26 -5 -28 -9z"></path><path id="pVzupht4K" d="M524 888 c-3 -4 8 -8 25 -8 16 0 31 -5 33 -11 2 -7 8 -6 16 4 11 13 7 15 -28 19 -23 2 -44 0 -46 -4z"></path><path id="p17kgwD8Rg" d="M2060 470 c0 -21 10 -24 48 -14 36 10 27 34 -13 34 -28 0 -35 -4 -35 -20z"></path><path id="pf8VhffeG" d="M1580 467 c0 -16 16 -21 103 -33 43 -6 47 -5 47 15 0 15 -6 21 -22 21 -13 0 -47 3 -75 6 -44 6 -53 4 -53 -9z"></path><path id="p1AOJnm3mp" d="M1930 450 c0 -21 10 -24 48 -14 36 10 27 34 -13 34 -28 0 -35 -4 -35 -20z"></path><path id="pT8f42bDh" d="M1630 275 c0 -15 6 -25 14 -25 8 0 16 -3 19 -7 2 -5 2 -3 1 4 -2 7 1 15 6 18 15 9 -1 35 -21 35 -14 0 -19 -7 -19 -25z m32 0 c0 -5 -5 -11 -11 -13 -6 -2 -11 4 -11 13 0 9 5 15 11 13 6 -2 11 -8 11 -13z"></path></g></g><g id="l5M3j6do9wFrVlD6NZ01NgN" fill="rgb(26,177,124)" style="transform: none;"><g><path id="p193BcWkvQ" d="M2271 3093 c-12 -8 -26 -11 -31 -8 -12 7 -33 -12 -43 -37 -3 -10 -11 -18 -17 -18 -17 0 -11 -39 8 -49 9 -5 24 -26 31 -48 22 -61 68 -118 107 -132 51 -18 135 -16 193 5 45 16 51 21 51 46 0 21 5 28 19 28 14 0 21 9 26 31 4 17 5 32 3 33 -1 2 -24 17 -51 35 l-47 32 0 -51 c0 -49 -1 -50 -30 -50 -16 0 -59 15 -95 32 -82 41 -83 60 -2 72 35 5 57 13 57 21 0 7 -24 23 -52 35 -84 36 -104 40 -127 23z"></path></g></g><g id="l6KsK1009oEIPdrLsdNRTcM" fill="rgb(35,118,183)" style="transform: none;"><g><path id="pDe0R0PnY" d="M1445 1955 c-22 -6 -41 -19 -43 -28 -2 -9 -9 -14 -17 -11 -14 6 -65 -40 -65 -58 0 -5 -12 -20 -26 -33 -19 -18 -25 -31 -22 -49 3 -14 1 -23 -4 -20 -4 3 -11 -8 -14 -25 -4 -17 -10 -31 -14 -31 -3 0 -7 -6 -7 -12 0 -7 -4 -22 -8 -33 -5 -11 33 24 84 77 50 53 120 119 155 147 46 37 63 56 59 69 -5 21 -24 23 -78 7z"></path><path id="pDtVX0kja" d="M1550 1836 c-6 -9 -35 -31 -63 -50 -59 -39 -128 -104 -172 -161 -16 -21 -45 -56 -62 -78 -30 -36 -43 -67 -72 -183 -6 -23 -29 -62 -54 -90 l-42 -48 -6 71 c-4 39 -10 77 -14 84 -6 9 -52 10 -195 5 -151 -6 -189 -5 -194 6 -3 7 -4 -5 -1 -27 l5 -40 -25 40 c-14 22 -28 50 -31 63 -10 36 -27 26 -21 -13 3 -19 2 -37 -3 -40 -9 -6 4 -55 37 -140 13 -33 17 -60 13 -80 -8 -35 27 -106 97 -197 56 -74 63 -77 63 -33 0 28 -5 38 -20 42 -11 3 -20 14 -20 24 0 11 -3 19 -7 19 -14 0 -33 53 -33 91 0 20 -9 56 -20 80 l-19 44 31 3 c29 3 30 5 26 45 l-5 42 83 2 c57 1 90 6 106 17 12 9 35 16 50 16 25 0 28 -3 28 -35 0 -24 5 -35 15 -35 12 0 15 -18 15 -100 l0 -100 33 0 c24 0 44 10 74 38 34 32 42 46 48 93 10 70 43 201 53 208 19 14 120 143 151 194 23 37 42 57 59 60 23 4 24 3 18 -32 -16 -89 -19 -173 -7 -181 10 -5 10 -16 2 -46 -6 -22 -11 -54 -11 -71 0 -31 2 -33 35 -33 41 0 48 10 70 110 23 102 48 171 53 145 6 -34 24 -75 33 -75 5 0 9 -7 9 -15 0 -25 23 -65 37 -65 7 0 13 -11 13 -25 0 -14 5 -25 10 -25 6 0 10 -6 10 -14 0 -15 30 -26 74 -26 29 0 29 0 23 49 -3 27 -15 68 -27 90 -11 23 -18 41 -15 41 3 0 28 -11 55 -25 27 -14 58 -25 70 -25 11 0 20 -4 20 -10 0 -5 11 -10 25 -10 14 0 25 -4 25 -9 0 -5 47 -22 105 -38 l105 -28 6 -36 c4 -20 17 -48 30 -62 22 -24 24 -32 18 -82 -9 -77 9 -72 47 12 l30 68 -20 38 c-11 21 -16 35 -11 32 5 -3 7 0 4 7 -11 27 -57 49 -176 83 -81 23 -169 58 -258 103 -74 37 -138 69 -142 70 -5 2 -8 -15 -8 -38 0 -29 12 -65 42 -121 22 -43 39 -82 36 -85 -14 -13 -133 211 -164 309 l-18 57 -27 -43 c-18 -28 -34 -80 -48 -148 -33 -166 -42 -181 -36 -61 5 103 31 244 61 335 17 51 15 67 -6 43z"></path><path id="p17816Yu5m" d="M2045 1598 c-126 -28 -125 -28 -80 -44 38 -13 120 -19 158 -11 25 5 49 51 34 66 -6 6 -13 10 -16 10 -4 -1 -46 -10 -96 -21z"></path><path id="p1E14AJLqm" d="M831 861 c7 -10 20 -23 30 -30 17 -10 19 -8 19 19 0 27 -3 30 -30 30 -27 0 -29 -2 -19 -19z"></path><path id="pbmoFUGpB" d="M930 769 c47 -42 218 -159 232 -159 4 0 8 11 8 25 0 16 -6 25 -15 25 -8 0 -15 4 -15 9 0 5 -9 13 -20 16 -11 4 -32 17 -47 31 -14 13 -32 24 -38 24 -7 0 -15 7 -19 15 -3 8 -14 15 -25 15 -10 0 -21 9 -24 20 -4 16 -13 20 -44 20 l-38 -1 45 -40z"></path><path id="p7Ft6R9bo" d="M1190 602 c0 -8 52 -42 64 -42 3 0 6 11 6 25 0 22 -4 25 -35 25 -19 0 -35 -4 -35 -8z"></path></g></g><g id="l4UF2I4MWxcVRrRbchSRE6g" fill="rgb(101,117,151)" style="transform: none;"><g><path id="pDxBqQ85m" d="M1793 1366 c8 -20 -4 -28 -20 -15 -27 23 -14 -47 17 -89 25 -36 36 -42 65 -42 34 0 35 1 35 37 0 43 -54 122 -84 123 -11 0 -16 -5 -13 -14z"></path><path id="pq45hxdtz" d="M2167 1033 c-39 -77 -53 -145 -39 -191 7 -22 12 -78 12 -126 0 -70 3 -86 15 -86 9 0 15 -9 15 -25 0 -21 -9 -29 -43 -44 -24 -11 -55 -33 -68 -50 -21 -27 -33 -32 -87 -37 -53 -6 -62 -10 -62 -26 0 -18 5 -19 53 -13 142 17 259 49 252 68 -8 21 9 36 82 71 82 40 98 56 55 56 -29 0 -30 1 -22 35 8 33 7 35 -13 29 -12 -3 7 16 43 43 36 28 74 60 85 73 20 22 20 22 0 37 -24 18 -103 58 -130 67 -16 5 -25 -2 -39 -29 l-19 -35 -14 28 c-39 73 -43 102 -22 153 l19 49 -25 0 c-19 0 -30 -10 -48 -47z m163 -197 c0 -8 7 -19 15 -26 19 -16 19 -30 0 -30 -7 0 -18 -6 -22 -12 -4 -7 -22 -21 -40 -31 l-31 -17 30 69 c28 63 48 82 48 47z"></path><path id="p5n9UOWWw" d="M1210 592 c0 -31 255 -123 408 -147 38 -6 42 -5 42 14 0 15 -6 21 -22 21 -12 0 -56 9 -98 20 -62 17 -79 26 -95 51 -11 17 -30 35 -43 40 -28 11 -192 12 -192 1z"></path><path id="p16lb9aAe2" d="M1670 456 c0 -13 28 -26 58 -26 6 0 12 9 12 20 0 16 -7 20 -35 20 -23 0 -35 -5 -35 -14z"></path></g></g><g id="l3evuWgNfZvtkNFtx5ecEJx" fill="rgb(70,169,132)" style="transform: none;"><g><path id="pv5kkKWN7" d="M2274 3097 c-10 -6 -37 -12 -59 -12 -22 0 -78 -2 -125 -4 l-85 -2 70 -20 c92 -27 99 -36 23 -32 l-63 3 69 -20 c38 -11 78 -25 89 -31 17 -10 19 -9 14 5 -4 9 -2 16 4 16 5 0 13 8 16 17 7 18 64 78 73 77 3 -1 18 -5 35 -9 38 -8 28 3 -12 14 -19 6 -37 5 -49 -2z"></path><path id="pNRmO0Mut" d="M2386 3054 c-11 -7 -18 -15 -15 -18 15 -13 52 -26 73 -26 15 0 26 -6 26 -13 0 -7 14 -21 31 -31 19 -11 28 -23 25 -33 -3 -8 -6 -18 -6 -23 0 -5 -9 -12 -20 -15 -22 -7 -28 -41 -8 -47 12 -4 21 -37 10 -39 -23 -2 -45 -8 -50 -13 -9 -10 24 -7 53 4 22 8 34 5 71 -16 24 -14 44 -21 44 -16 0 6 -4 14 -10 17 -5 3 -10 11 -10 16 0 5 18 0 40 -11 l39 -20 -20 34 c-11 19 -19 38 -17 42 1 5 -4 19 -11 32 -7 13 -10 29 -8 36 6 14 0 25 -24 44 -14 10 -17 10 -16 0 1 -30 -4 -48 -12 -48 -15 0 -24 40 -12 54 9 10 6 17 -11 28 -43 28 -128 68 -128 61 0 -5 -4 -3 -8 4 -5 8 -12 8 -26 -3z m143 -188 c10 -12 8 -13 -8 -9 -12 3 -21 9 -21 14 0 14 16 11 29 -5z"></path></g></g><g id="l4DNUkUSwkr9BVQRdGX6qBR" fill="rgb(68,126,185)" style="transform: none;"><g><path id="p16SgZOvTF" d="M1570 1985 c-25 -7 -52 -14 -60 -16 -22 -6 -37 -23 -63 -71 l-24 -45 76 54 c95 67 127 92 121 92 -3 -1 -25 -7 -50 -14z"></path><path id="p1EEOUlheY" d="M1509 1766 c-32 -40 -52 -58 -75 -62 -24 -4 -38 -18 -65 -61 -31 -51 -132 -180 -151 -194 -10 -7 -43 -138 -53 -208 -6 -47 -13 -60 -49 -93 l-41 -39 -3 105 c-2 88 -5 104 -18 99 -12 -4 -13 -1 -4 22 5 14 10 31 10 36 0 14 -133 11 -155 -4 -11 -7 -29 -14 -40 -15 -11 0 -35 -3 -52 -5 -18 -2 -43 1 -56 8 -35 18 -77 27 -77 16 0 -6 9 -33 20 -61 38 -95 -6 -44 -69 83 -19 37 -21 31 -10 -25 4 -27 6 -54 3 -61 -3 -8 13 -56 36 -107 41 -96 48 -126 29 -132 -15 -5 60 -115 131 -191 99 -106 263 -228 397 -296 68 -34 78 -37 67 -19 -5 8 0 9 14 6 18 -5 22 -2 22 15 -1 33 -16 47 -120 111 -52 32 -124 80 -160 106 -36 26 -80 51 -98 55 -17 3 -32 11 -32 16 0 5 -11 9 -25 9 -14 0 -25 4 -25 10 0 15 -42 60 -57 60 -7 0 -13 8 -13 18 0 10 -3 22 -7 26 -5 4 -13 33 -19 64 -6 31 -14 65 -19 75 -6 14 -2 17 20 17 27 0 27 2 23 43 l-5 42 99 3 c93 2 98 2 98 -18 0 -15 7 -20 27 -20 l26 0 -7 -125 -6 -125 31 0 c21 0 41 11 67 35 20 19 40 35 44 35 3 0 9 24 13 52 4 29 15 92 25 140 15 75 22 92 56 127 21 23 43 41 50 41 6 0 18 15 25 33 7 17 18 37 24 44 5 7 16 19 23 27 7 9 15 30 19 48 3 18 9 35 12 38 3 3 15 22 26 43 22 42 54 76 42 44 -3 -9 -9 -46 -13 -82 -6 -56 -5 -65 10 -65 9 0 16 2 16 4 0 21 44 224 55 257 9 23 13 44 11 46 -2 2 -23 -21 -47 -51z"></path><path id="p9fKeT7DT" d="M1577 1598 c-14 -40 -33 -108 -42 -150 -9 -42 -23 -85 -31 -95 -12 -16 -13 -8 -14 60 0 70 -2 77 -20 77 -18 0 -20 -7 -20 -72 0 -40 3 -97 6 -125 l7 -53 38 0 c34 0 41 4 64 43 20 35 25 57 25 109 0 81 24 158 50 158 18 0 18 3 -3 60 -12 33 -25 60 -28 60 -4 0 -18 -33 -32 -72z"></path><path id="pCpZox3Ni" d="M2045 1596 c-84 -21 -88 -23 -57 -30 64 -15 162 13 162 46 0 10 5 11 -105 -16z"></path><path id="pu0yqFe3U" d="M1741 1545 c6 -19 7 -40 4 -45 -3 -5 5 -31 18 -57 13 -26 27 -60 31 -76 8 -34 67 -117 81 -113 16 4 17 84 2 114 -62 119 -69 136 -59 140 22 7 12 19 -37 46 l-50 26 10 -35z"></path><path id="pfnpDP5iU" d="M1900 1465 c0 -20 5 -25 25 -25 14 0 25 -4 25 -10 0 -5 11 -10 25 -10 14 0 25 -4 25 -9 0 -5 14 -12 30 -16 19 -4 30 -13 30 -24 0 -43 51 -141 100 -191 38 -37 50 -56 44 -68 -12 -28 -17 -92 -7 -92 21 0 119 215 103 225 -5 3 -11 -1 -13 -7 -3 -8 -6 -6 -6 5 -1 10 -12 30 -26 45 -14 15 -26 37 -26 49 -1 13 -2 28 -3 34 0 6 -50 26 -111 43 -60 18 -134 42 -162 54 l-53 22 0 -25z"></path><path id="pQ1utwdgk" d="M1690 1426 c0 -19 7 -41 15 -50 8 -8 15 -19 15 -25 0 -6 5 -11 10 -11 6 0 10 -6 10 -12 1 -25 46 -68 79 -74 l34 -7 -41 54 c-23 30 -56 78 -74 107 -18 28 -36 52 -40 52 -5 0 -8 -15 -8 -34z"></path></g></g><g id="l3DXSXxV4cYvfztqJqrg3yK" fill="rgb(65,140,210)" style="transform: none;"><g><path id="pD0X6YFZt" d="M1553 1968 c-23 -13 -52 -36 -65 -53 -20 -25 -14 -23 47 19 83 58 81 56 69 56 -5 0 -28 -10 -51 -22z"></path><path id="pNgUTR1oE" d="M1529 1780 c-15 -20 -30 -47 -34 -59 -4 -14 -15 -21 -31 -21 -17 0 -31 -11 -49 -40 -14 -22 -25 -44 -25 -50 0 -5 -4 -10 -9 -10 -4 0 -11 -16 -14 -35 -3 -19 -12 -41 -19 -50 -7 -9 -18 -21 -23 -28 -6 -7 -17 -27 -24 -44 -7 -18 -19 -33 -25 -33 -7 0 -29 -18 -50 -41 -41 -42 -51 -76 -77 -242 -9 -59 -16 -74 -42 -96 -17 -14 -33 -25 -36 -23 -3 2 -8 -3 -11 -12 -3 -8 -3 42 -2 113 l4 129 -28 -6 c-27 -5 -27 -4 -20 37 3 22 4 41 1 41 -2 0 -19 -8 -37 -18 -18 -10 -40 -19 -48 -20 -92 -4 -132 -3 -142 6 -7 5 -28 13 -46 17 l-33 7 16 -39 c9 -21 21 -49 27 -63 l9 -25 -28 28 c-16 15 -34 27 -41 27 -19 0 -14 -57 10 -103 26 -51 39 -105 27 -113 -10 -6 18 -50 80 -122 24 -28 48 -49 54 -45 5 3 13 0 17 -8 5 -7 21 -14 36 -16 15 -2 64 -31 109 -64 52 -38 92 -59 109 -59 25 0 27 3 24 38 -3 34 -6 37 -37 40 -19 2 -44 10 -54 17 -17 12 -13 13 37 8 l56 -6 0 54 c1 62 14 176 32 267 11 57 15 65 43 77 18 7 52 16 76 20 23 4 63 16 87 26 53 23 52 23 52 4 0 -10 11 -15 35 -15 30 0 35 3 35 24 0 22 3 23 47 18 41 -4 49 -2 67 20 29 35 90 44 108 16 9 -14 22 -19 41 -16 l27 3 -36 50 c-43 60 -127 224 -144 282 -15 48 -30 48 -30 0 0 -18 -9 -56 -20 -85 -13 -33 -20 -76 -20 -119 0 -53 -5 -75 -25 -110 -14 -23 -30 -43 -34 -43 -16 0 -23 135 -12 235 11 93 39 221 61 281 15 39 9 37 -21 -6z m-593 -645 c10 -8 34 -15 52 -15 l32 0 -1 -52 c-1 -29 -4 -92 -8 -141 l-6 -87 -85 73 c-47 41 -95 93 -108 115 l-23 42 26 0 c26 0 27 2 23 40 l-4 40 41 0 c23 0 50 -7 61 -15z"></path><path id="plBvYJEPG" d="M2010 1585 l-55 -13 46 -1 c26 0 60 6 75 14 36 19 14 19 -66 0z"></path><path id="pfscQq527" d="M1759 1533 c10 -21 24 -56 31 -78 7 -22 24 -57 37 -78 13 -21 26 -51 30 -68 7 -35 37 -50 158 -80 126 -30 198 -24 146 13 -10 7 -30 41 -44 75 -22 53 -23 64 -11 74 12 10 -4 19 -87 50 -55 21 -139 59 -186 84 -47 25 -87 45 -89 45 -1 0 5 -17 15 -37z"></path></g></g><g id="l6rqPCaVyRpiGLEQwYfLSri" fill="rgb(101,139,191)" style="transform: none;"><g><path id="pVSDYpLkj" d="M690 1360 c0 -8 16 -49 37 -92 32 -68 39 -78 62 -78 23 1 24 2 9 13 -10 8 -14 22 -11 37 3 20 -2 29 -26 43 -17 10 -40 35 -51 55 -10 20 -19 30 -20 22z"></path><path id="pGo1xwF1u" d="M1760 1315 c0 -48 89 -155 140 -168 19 -5 40 -12 45 -17 11 -9 76 -46 116 -67 15 -7 32 -20 39 -28 13 -15 67 -45 82 -45 5 0 25 33 44 74 l36 75 -57 56 c-32 33 -62 54 -70 51 -16 -6 -154 26 -208 49 -20 8 -46 24 -57 35 -18 18 -19 18 -15 -33 l4 -52 -50 53 -49 52 0 -35z"></path><path id="pUe5FlfQn" d="M1529 1304 c-7 -14 -21 -30 -31 -35 -15 -8 -18 -6 -18 11 0 33 -25 18 -27 -16 -2 -16 3 -54 10 -84 12 -53 14 -55 47 -58 38 -3 36 -6 83 91 15 32 27 72 27 89 0 29 -1 30 -18 15 -23 -21 -27 -21 -45 -3 -12 13 -16 11 -28 -10z"></path><path id="p14pFsopRu" d="M997 1206 c-4 -15 -6 -31 -2 -34 10 -10 16 6 13 35 l-3 28 -8 -29z"></path><path id="pV3fyKSTv" d="M960 1156 c0 -12 10 -16 39 -16 22 0 42 4 45 8 3 5 -8 6 -25 4 -16 -2 -36 1 -44 8 -12 10 -15 9 -15 -4z"></path><path id="pGmcKFP6e" d="M2125 939 c-4 -12 -4 -41 0 -65 5 -35 10 -44 26 -44 19 0 22 21 6 47 -4 6 -4 14 1 17 4 2 9 18 10 35 2 25 -2 31 -17 31 -11 0 -23 -9 -26 -21z"></path><path id="p11b4FYgur" d="M1065 742 c22 -21 76 -60 119 -87 44 -27 90 -60 103 -73 18 -18 31 -22 51 -18 21 5 24 4 12 -4 -12 -9 -9 -11 13 -7 18 3 31 -1 37 -12 7 -12 9 -8 9 19 0 41 -26 76 -63 86 -14 3 -26 10 -26 14 0 4 -29 22 -64 40 -36 18 -67 39 -70 46 -3 9 -21 14 -46 14 -22 0 -40 5 -40 10 0 6 -17 10 -37 10 l-37 0 39 -38z"></path></g></g><g id="l3PgsS7G1xIUyHZ80aU1Nz" fill="rgb(137,143,170)" style="transform: none;"><g><path id="pztgTpLwO" d="M1880 1170 c0 -24 12 -43 53 -83 49 -50 144 -133 168 -148 8 -5 5 -24 -10 -63 -16 -43 -21 -80 -21 -154 0 -149 -5 -169 -49 -183 -20 -7 -52 -25 -71 -40 -19 -16 -43 -29 -52 -29 -11 0 -18 -8 -18 -20 0 -23 3 -24 107 -9 70 10 81 14 105 44 17 20 48 40 78 51 45 16 64 37 41 46 -5 1 -6 17 -4 33 4 24 18 38 69 70 62 38 170 128 149 123 -14 -4 -65 43 -65 59 0 15 -63 50 -67 37 -2 -5 -30 -63 -62 -129 l-58 -120 -2 93 c-1 51 -6 103 -10 115 -13 33 -13 32 14 93 19 43 22 60 14 70 -6 8 -17 14 -24 14 -6 0 -20 9 -30 20 -10 11 -30 26 -44 33 -14 8 -44 24 -66 37 -57 33 -94 52 -108 54 -7 1 -18 5 -24 9 -9 6 -13 -1 -13 -23z"></path><path id="pWBYqu2tU" d="M1320 615 c0 -8 6 -12 13 -10 13 5 84 -80 79 -96 -1 -6 2 -8 8 -4 5 3 10 2 10 -3 0 -13 135 -48 233 -61 103 -14 107 -14 107 8 0 15 -11 19 -70 25 -45 4 -77 12 -89 24 -54 49 -68 60 -88 66 -13 4 -29 13 -35 19 -43 41 -168 65 -168 32z"></path></g></g><g id="l79kn4zsWWADA2Km9tQsFPV" fill="rgb(72,217,176)" style="transform: none;"><g><path id="pGWgECJ20" d="M2387 3054 c-8 -9 -96 -27 -127 -26 l-24 0 24 -19 c14 -10 30 -19 35 -20 6 -1 -5 -4 -23 -8 -32 -6 -27 -9 103 -74 113 -56 135 -64 130 -47 -7 23 -5 23 28 11 24 -10 25 -9 22 50 -3 66 -9 74 -80 108 -52 25 -80 33 -88 25z"></path></g></g><g id="l3yf341z15obLjAP3ToKaal" fill="rgb(111,165,226)" style="transform: none;"><g><path id="pQ1julLUm" d="M1708 1368 c-2 -4 -23 -12 -48 -16 -44 -7 -46 -9 -87 -87 -23 -44 -46 -89 -51 -99 -12 -28 -20 -10 -34 77 -10 63 -14 72 -26 61 -7 -8 -22 -14 -31 -14 -10 0 -36 -7 -57 -16 -33 -14 -72 -25 -172 -47 -7 -2 -16 -7 -21 -13 -17 -20 -51 -240 -51 -336 0 -27 -3 -48 -6 -48 -3 0 -23 12 -44 28 l-39 27 6 136 6 136 -31 -5 c-19 -2 -40 2 -54 12 -12 9 -41 16 -64 16 -62 0 -127 31 -153 74 -13 20 -24 36 -26 36 -6 0 22 -65 56 -132 30 -59 29 -70 -2 -42 -17 15 -19 15 -30 -9 -10 -22 -7 -33 22 -87 31 -58 61 -89 200 -205 40 -34 117 -85 127 -85 5 0 15 -6 21 -14 6 -7 25 -16 42 -20 17 -3 38 -15 48 -27 9 -12 30 -23 46 -25 16 -1 31 -8 33 -13 2 -6 10 -11 18 -11 8 0 14 -4 14 -8 0 -4 9 -8 20 -8 14 0 20 7 20 22 0 15 -13 28 -47 45 -26 13 -56 32 -68 42 -11 10 -35 27 -53 39 -31 19 -32 22 -27 71 12 106 15 116 38 122 12 4 76 34 142 67 89 45 130 60 157 59 26 -1 52 8 88 30 68 42 163 50 273 24 41 -10 80 -16 86 -14 7 3 -8 26 -34 54 -25 28 -75 86 -110 131 -58 73 -89 96 -97 72z"></path></g></g><g id="l7A0VDoRBt8pHjuQTAlSCac" fill="rgb(171,166,181)" style="transform: none;"><g><path id="p19CyEwPbr" d="M2060 990 c0 -25 4 -30 25 -30 18 0 25 -5 25 -20 0 -15 7 -20 25 -20 36 0 31 23 -12 56 -21 15 -39 32 -41 36 -8 19 -22 5 -22 -22z"></path><path id="pD0Vrc61e" d="M2016 730 c-67 -146 -70 -150 -107 -160 -20 -6 -39 -16 -42 -23 -9 -27 -205 -2 -362 47 -58 18 -115 21 -115 5 0 -6 13 -16 30 -22 16 -6 30 -14 30 -18 0 -4 15 -12 32 -20 30 -12 48 -25 98 -71 24 -21 196 -42 291 -36 56 4 76 11 106 34 21 16 56 36 78 44 28 11 40 22 40 35 1 11 7 33 15 48 9 20 11 31 3 35 -17 11 -16 152 2 201 19 54 19 51 -7 51 -20 -1 -33 -23 -92 -150z"></path><path id="pDdOhi543" d="M2216 726 c-20 -43 -36 -81 -36 -83 0 -7 109 55 139 78 l24 19 -26 0 c-17 0 -31 10 -45 32 l-21 32 -35 -78z"></path></g></g><g id="lYymadmzLlqEo9z4ffo6uX" fill="rgb(164,190,229)" style="transform: none;"><g><path id="psgxMCDal" d="M1661 1168 c-30 -4 -75 -21 -100 -37 -36 -21 -50 -26 -63 -18 -13 9 -48 -5 -162 -62 -81 -40 -155 -73 -166 -74 -21 -1 -26 -20 -36 -147 l-6 -86 75 -51 c82 -55 163 -97 215 -112 29 -9 32 -8 32 12 0 17 -16 29 -71 57 -40 19 -68 35 -63 36 5 1 21 5 36 8 27 6 98 72 98 92 0 6 40 49 88 95 75 71 98 87 150 103 75 23 167 17 239 -15 60 -28 163 -107 163 -125 0 -29 19 -12 46 41 l29 55 -29 22 c-33 26 -100 84 -166 145 -31 28 -61 45 -92 52 -67 15 -156 19 -217 9z"></path><path id="pHtmW8UPe" d="M828 1095 c25 -50 95 -145 155 -210 l46 -50 1 61 c0 55 -2 62 -30 82 -16 12 -36 22 -44 22 -9 0 -45 30 -82 68 -63 64 -65 65 -46 27z"></path></g></g><g id="l7lknFcaULb1mDs88GNW7RC" fill="rgb(207,209,225)" style="transform: none;"><g><path id="pMrP3Eja5" d="M1666 1017 c-61 -19 -80 -32 -158 -106 -48 -46 -88 -89 -88 -95 -1 -15 -53 -72 -80 -86 -13 -7 -36 -9 -52 -6 -23 5 -29 3 -25 -8 6 -15 -28 -17 -51 -2 -7 4 -12 5 -12 1 0 -8 129 -89 185 -115 89 -41 269 -87 384 -97 63 -6 144 4 136 17 -3 5 12 14 33 19 38 11 40 14 110 164 40 84 72 160 72 169 0 19 -100 98 -160 125 -92 42 -203 49 -294 20z m223 -169 c46 -26 63 -41 80 -78 12 -25 21 -54 21 -65 -1 -36 -45 -109 -76 -125 -37 -19 -227 -20 -306 -2 l-57 13 23 37 c13 20 30 55 36 77 23 73 67 123 139 157 51 25 75 22 140 -14z"></path></g></g><g id="l7P2q1oWx9C7s3u6cY45CUo" fill="rgb(242,236,237)" style="transform: none;"><g><path id="pt53NV1ql" d="M1729 896 c-81 -37 -125 -85 -149 -161 -6 -22 -23 -57 -36 -77 -13 -21 -24 -44 -24 -52 0 -8 -8 -20 -17 -25 -10 -6 -15 -11 -11 -11 4 0 33 -7 65 -15 164 -44 377 -33 417 19 31 40 66 130 55 141 -5 5 -9 18 -9 30 0 11 -8 32 -17 45 -10 14 -16 26 -15 28 8 8 -20 32 -70 60 -71 41 -128 46 -189 18z"></path></g></g></svg>